<?xml version="1.0" encoding="UTF-8" standalone="no"?>
<svg
   xmlns:dc="http://purl.org/dc/elements/1.1/"
   xmlns:cc="http://creativecommons.org/ns#"
   xmlns:rdf="http://www.w3.org/1999/02/22-rdf-syntax-ns#"
   xmlns:svg="http://www.w3.org/2000/svg"
   xmlns="http://www.w3.org/2000/svg"
   xmlns:sodipodi="http://sodipodi.sourceforge.net/DTD/sodipodi-0.dtd"
   xmlns:inkscape="http://www.inkscape.org/namespaces/inkscape"
   height="88"
   width="313"
   version="1.1"
   id="svg898"
   sodipodi:docname="bandeiras-totais.svg"
   inkscape:version="0.92.3 (2405546, 2018-03-11)">
  <metadata
     id="metadata904">
    <rdf:RDF>
      <cc:Work
         rdf:about="">
        <dc:format>image/svg+xml</dc:format>
        <dc:type
           rdf:resource="http://purl.org/dc/dcmitype/StillImage" />
        <dc:title></dc:title>
      </cc:Work>
    </rdf:RDF>
  </metadata>
  <defs
     id="defs902">
    <linearGradient
       gradientUnits="userSpaceOnUse"
       gradientTransform="scale(0.64136183,1.5591823)"
       x1="713.38489"
       y1="151.04134"
       x2="920.43945"
       y2="151.04134"
       id="a">
      <stop
         stop-color="#007B40"
         offset="0%"
         id="stop1608" />
      <stop
         stop-color="#55B330"
         offset="100%"
         id="stop1610" />
    </linearGradient>
    <linearGradient
       gradientUnits="userSpaceOnUse"
       gradientTransform="scale(0.64270631,1.5559206)"
       x1="248.43362"
       y1="151.35826"
       x2="455.03171"
       y2="151.35826"
       id="b">
      <stop
         stop-color="#1D2970"
         offset="0%"
         id="stop1613" />
      <stop
         stop-color="#006DBA"
         offset="100%"
         id="stop1615" />
    </linearGradient>
    <linearGradient
       gradientUnits="userSpaceOnUse"
       gradientTransform="scale(0.64155996,1.5587008)"
       x1="481.02563"
       y1="151.08855"
       x2="688.00177"
       y2="151.08855"
       id="c">
      <stop
         stop-color="#6E2B2F"
         offset="0%"
         id="stop1618" />
      <stop
         stop-color="#E30138"
         offset="100%"
         id="stop1620" />
    </linearGradient>
  </defs>
  <sodipodi:namedview
     pagecolor="#ffffff"
     bordercolor="#666666"
     borderopacity="1"
     objecttolerance="10"
     gridtolerance="10"
     guidetolerance="10"
     inkscape:pageopacity="0"
     inkscape:pageshadow="2"
     inkscape:window-width="1366"
     inkscape:window-height="664"
     id="namedview900"
     showgrid="false"
     inkscape:zoom="2.2024061"
     inkscape:cx="152.72309"
     inkscape:cy="10.319634"
     inkscape:window-x="0"
     inkscape:window-y="27"
     inkscape:window-maximized="1"
     inkscape:current-layer="svg898" />
  <g
     id="g2579"
     transform="translate(0.01539611,-0.31329538)">
    <g
       transform="translate(-0.076431,-61.579183)"
       id="g2466">
      <g
         id="g915"
         transform="matrix(0.05570969,0,0,0.05570969,29.2333,77.466731)">
        <path
           d="m 675,235.506 c 0,99.134 -80.35,179.496 -179.483,179.496 -99.121,0 -179.48,-80.362 -179.48,-179.496 0,-99.141 80.359,-179.508 179.48,-179.508 99.133,0 179.483,80.367 179.483,179.508"
           id="path888"
           inkscape:connector-curvature="0"
           style="fill:#d9222a;fill-rule:evenodd" />
        <path
           d="m 356.87,349.49 a 177.907,177.907 0 0 1 -13.674,-19.009 h 63.612 a 178.646,178.646 0 0 0 10.342,-19.012 h -84.292 a 178.39,178.39 0 0 1 -7.596,-19 h 99.476 c 5.987,-17.904 9.229,-37.05 9.229,-56.963 0,-13.046 -1.392,-25.762 -4.03,-38.012 H 320.076 a 178.242,178.242 0 0 1 5.208,-19.009 h 99.442 a 181.479,181.479 0 0 0 -7.592,-19.004 H 332.88 a 180.954,180.954 0 0 1 10.338,-19.008 h 63.57 a 181.425,181.425 0 0 0 -13.67,-18.992 h -36.225 a 181.098,181.098 0 0 1 18.112,-19 C 343.151,73.598 300.868,55.998 254.488,55.998 155.358,55.998 75,136.365 75,235.506 c 0,99.134 80.358,179.496 179.487,179.496 46.388,0 88.667,-17.596 120.517,-46.475 a 180.409,180.409 0 0 0 18.134,-19.037 z"
           id="path890"
           inkscape:connector-curvature="0"
           style="fill:#0097d0;fill-rule:evenodd" />
        <path
           d="m 651.075,335.544 c 0,-3.2 2.596,-5.796 5.8,-5.796 3.2,0 5.792,2.596 5.792,5.796 0,3.204 -2.592,5.8 -5.792,5.8 a 5.799,5.799 0 0 1 -5.8,-5.8 z m 5.8,4.408 a 4.401,4.401 0 0 0 4.404,-4.408 4.396,4.396 0 0 0 -4.404,-4.396 4.4,4.4 0 0 0 -4.408,4.396 4.405,4.405 0 0 0 4.408,4.408 z m -0.787,-1.862 h -1.184 v -5.092 h 2.15 c 0.446,0 0.904,0.004 1.3,0.258 0.417,0.284 0.646,0.775 0.646,1.271 0,0.583 -0.337,1.113 -0.88,1.317 l 0.934,2.246 h -1.316 l -0.775,-2.009 h -0.875 z m 0,-2.88 h 0.658 c 0.246,0 0.504,0.017 0.725,-0.1 a 0.712,0.712 0 0 0 0.3,-0.591 0.652,0.652 0 0 0 -0.288,-0.513 c -0.212,-0.125 -0.541,-0.1 -0.762,-0.1 h -0.633 z M 372.446,284.006 c -7.671,2.034 -15.088,3.025 -22.93,3.009 -25.016,-0.025 -38.045,-11.417 -38.045,-33.2 0,-25.459 16.587,-44.184 39.1,-44.184 18.416,0 30.175,10.5 30.175,26.946 0,5.458 -0.796,10.77 -2.746,18.296 h -44.488 c -1.583,10.633 6.188,15.304 19.413,15.304 7.925,0 15.092,-1.425 23.025,-4.612 z m -11.963,-44.15 c 0,-1.608 2.475,-13.033 -10.4,-13.283 -7.108,0 -12.208,4.725 -14.27,13.283 z m 27.034,-4.991 c 0,9.404 5.296,15.9 17.329,20.737 9.2,3.77 10.65,4.858 10.65,8.22 0,4.663 -4.067,6.805 -13.092,6.747 -6.779,-0.05 -12.962,-0.871 -20.262,-2.896 l -3.23,17.154 c 6.488,1.504 15.588,2 23.65,2.188 24.026,0 35.117,-7.867 35.117,-24.867 0,-10.217 -4.625,-16.233 -16.033,-20.713 -9.538,-3.808 -10.658,-4.637 -10.658,-8.083 0,-4.05 3.779,-6.1 11.15,-6.1 4.462,0 10.579,0.413 16.379,1.108 l 3.258,-17.241 c -5.912,-0.825 -14.883,-1.484 -20.075,-1.484 -25.45,0 -34.258,11.459 -34.183,25.23 m -88.242,50.92 h -18.662 l 0.445,-7.82 c -5.691,6.17 -13.27,9.041 -23.558,9.041 -12.175,0 -20.517,-8.325 -20.517,-20.296 0,-18.195 14.5,-28.691 39.43,-28.691 2.562,0 5.82,0.191 9.166,0.562 0.692,-2.433 0.88,-3.479 0.88,-4.808 0,-4.98 -3.921,-6.813 -14.413,-6.813 -10.342,0.042 -17.321,1.571 -23.796,3.313 l 3.187,-16.7 c 11.196,-2.846 18.53,-3.942 26.825,-3.942 19.305,0 29.5,7.567 29.5,21.796 0.167,3.796 -1.158,11.413 -1.82,14.746 -0.759,4.854 -6.109,32.975 -6.667,39.612 z m -16.38,-33.191 c -2.366,-0.242 -3.395,-0.313 -5.012,-0.313 -12.729,0 -19.183,3.788 -19.183,11.267 0,4.692 3.15,7.633 8.058,7.633 9.146,0 15.75,-7.65 16.138,-18.587 z m 194.11,32.012 c -6.126,1.68 -10.897,2.409 -16.06,2.409 -11.432,0 -17.674,-5.842 -17.674,-16.25 -0.358,-2.859 2.433,-16.059 3.067,-19.738 0.633,-3.692 10.537,-57.492 10.537,-57.492 h 22.213 l -3.363,17.8 h 11.392 l -3.096,18.171 h -11.442 c 0,0 -6.279,31.53 -6.279,33.934 0,3.825 2.317,5.487 7.633,5.487 2.546,0 4.509,-0.237 6.03,-0.692 l -2.959,16.371 m 99.246,-74.975 c -16.28,0 -29,6.7 -36.387,17.892 l 6.412,-16.596 c -11.817,-4.337 -19.433,1.85 -26.325,10.65 0,0 -1.154,1.463 -2.3,2.8 v -13.05 h -20.858 c -2.825,23.03 -7.821,46.38 -11.73,69.446 l -0.941,5.02 h 22.437 c 2.125,-11.708 3.875,-21.212 5.617,-28.787 4.767,-20.787 12.788,-27.141 24.83,-24.333 -2.78,5.98 -4.305,12.892 -4.305,20.554 0,18.58 10.092,33.788 35.15,33.788 25.288,0 43.596,-13.509 43.596,-44.309 0,-18.579 -12.2,-33.075 -35.196,-33.075 z m -6.53,59.317 c -7.924,0.125 -12.728,-6.525 -12.728,-16.47 0,-11.793 7.012,-25.113 18.275,-25.113 9.087,0 12.2,7.204 12.2,14.879 0,16.779 -6.875,26.704 -17.746,26.704 z m -343.19,16.846 h -22.343 l 13.28,-69.954 -30.571,69.954 h -20.367 l -3.725,-69.55 -13.32,69.55 h -20.272 l 17.267,-90.996 h 34.913 l 2.912,50.725 22.117,-50.725 h 37.72 l -17.612,90.996"
           id="path892"
           inkscape:connector-curvature="0"
           style="fill:#000000;fill-rule:evenodd" />
        <path
           d="m 613.15,274.385 a 5.8,5.8 0 0 1 5.796,-5.795 c 3.204,0 5.796,2.6 5.796,5.795 a 5.796,5.796 0 1 1 -11.592,0 z m 5.796,4.413 a 4.414,4.414 0 0 0 4.408,-4.413 4.406,4.406 0 0 0 -4.408,-4.404 4.406,4.406 0 0 0 -4.408,4.404 4.414,4.414 0 0 0 4.408,4.413 z m -0.783,-1.867 h -1.188 v -5.083 h 2.15 c 0.45,0 0.908,0 1.304,0.25 0.409,0.28 0.646,0.767 0.646,1.27 0,0.58 -0.337,1.117 -0.883,1.317 l 0.933,2.246 h -1.317 l -0.77,-2.008 h -0.875 z m 0,-2.887 h 0.658 c 0.242,0 0.504,0.016 0.725,-0.096 a 0.702,0.702 0 0 0 0.296,-0.588 0.635,0.635 0 0 0 -0.284,-0.512 c -0.212,-0.13 -0.541,-0.096 -0.762,-0.096 h -0.633 z m -240.109,4.354 c -7.666,2.033 -15.087,3.03 -22.925,3.012 -25.017,-0.025 -38.046,-11.42 -38.046,-33.208 0,-25.45 16.58,-44.18 39.096,-44.18 18.421,0 30.175,10.497 30.175,26.943 0,5.466 -0.8,10.77 -2.741,18.3 h -44.488 c -1.583,10.629 6.18,15.308 19.408,15.308 7.925,0 15.088,-1.425 23.03,-4.617 z m -11.962,-44.15 c 0,-1.604 2.47,-13.033 -10.4,-13.28 -7.109,0 -12.204,4.73 -14.271,13.28 h 24.67 z m 27.037,-4.996 c 0,9.408 5.288,15.9 17.325,20.746 9.204,3.767 10.65,4.858 10.65,8.212 0,4.667 -4.066,6.809 -13.087,6.75 -6.784,-0.045 -12.967,-0.87 -20.263,-2.895 l -3.237,17.145 c 6.491,1.517 15.596,2.013 23.654,2.2 24.025,0 35.12,-7.87 35.12,-24.87 0,-10.217 -4.628,-16.238 -16.041,-20.713 -9.537,-3.808 -10.654,-4.637 -10.654,-8.083 0,-4.05 3.783,-6.1 11.146,-6.1 4.47,0 10.583,0.416 16.387,1.112 l 3.25,-17.246 c -5.912,-0.825 -14.879,-1.483 -20.066,-1.483 -25.459,0 -34.263,11.454 -34.184,25.225 m -88.242,50.93 h -18.666 l 0.45,-7.822 c -5.696,6.159 -13.275,9.034 -23.558,9.034 -12.176,0 -20.521,-8.325 -20.521,-20.288 0,-18.204 14.495,-28.696 39.429,-28.696 2.562,0 5.816,0.192 9.17,0.563 0.692,-2.433 0.876,-3.475 0.876,-4.808 0,-4.984 -3.917,-6.813 -14.409,-6.813 -10.341,0.042 -17.32,1.575 -23.796,3.313 l 3.184,-16.696 c 11.2,-2.85 18.529,-3.946 26.829,-3.946 19.304,0 29.496,7.567 29.496,21.792 0.167,3.8 -1.159,11.412 -1.817,14.754 -0.762,4.85 -6.112,32.97 -6.666,39.612 z M 288.5,246.984 c -2.358,-0.245 -3.392,-0.312 -5.012,-0.312 -12.721,0 -19.18,3.787 -19.18,11.267 0,4.695 3.154,7.633 8.055,7.633 9.154,0 15.758,-7.654 16.137,-18.588 z m 194.108,32.017 c -6.12,1.675 -10.895,2.408 -16.054,2.408 -11.433,0 -17.67,-5.845 -17.67,-16.254 -0.363,-2.854 2.433,-16.058 3.062,-19.737 0.633,-3.692 10.537,-57.492 10.537,-57.492 h 22.209 l -3.354,17.8 h 11.391 l -3.096,18.17 h -11.441 c 0,0 -6.284,31.53 -6.284,33.934 0,3.825 2.321,5.48 7.634,5.48 2.541,0 4.508,-0.23 6.029,-0.692 z m 110.471,-42.367 c 0,16.775 -6.879,26.709 -17.754,26.709 -7.92,0.112 -12.725,-6.525 -12.725,-16.475 0,-11.792 7.008,-25.113 18.27,-25.113 9.093,0 12.21,7.213 12.21,14.88 z m 23.98,0.467 c 0,-18.58 -12.209,-33.08 -35.196,-33.08 -26.45,0 -43.55,17.626 -43.55,43.597 0,18.579 10.083,33.791 35.15,33.791 25.287,0 43.595,-13.512 43.595,-44.308 z M 502.395,205.72 c -2.821,23.029 -7.817,46.375 -11.721,69.45 l -0.946,5.02 h 22.434 c 8.087,-44.558 10.8,-57.254 27.741,-52.783 l 8.15,-21.087 c -11.816,-4.338 -19.425,1.854 -26.308,10.658 0.62,-3.962 1.792,-7.783 1.508,-11.258 z M 232.136,280.19 H 209.8 L 223.075,210.232 192.5,280.19 h -20.363 l -3.725,-69.555 -13.32,69.555 H 134.82 l 17.262,-91 h 34.921 l 1.846,56.333 24.575,-56.333 h 36.325 z"
           id="path894"
           inkscape:connector-curvature="0"
           style="fill:#ffffff;fill-rule:evenodd" />
      </g>
      <g
         style="fill:none;fill-rule:evenodd"
         id="g987"
         transform="matrix(0.04246285,0,0,0.04246285,0.076431,79.999999)">
        <rect
           style="fill:#0e4595"
           y="0"
           x="0"
           height="471"
           rx="40"
           width="750"
           id="rect981" />
        <path
           style="fill:#ffffff"
           inkscape:connector-curvature="0"
           d="m 278.197,334.228 33.361,-195.763 h 53.36 l -33.385,195.763 z m 246.11,-191.54 c -10.572,-3.966 -27.136,-8.222 -47.822,-8.222 -52.725,0 -89.865,26.55 -90.18,64.603 -0.298,28.13 26.513,43.822 46.753,53.186 20.77,9.594 27.752,15.714 27.654,24.283 -0.132,13.121 -16.587,19.116 -31.923,19.116 -21.357,0 -32.703,-2.966 -50.226,-10.276 l -6.876,-3.111 -7.49,43.824 c 12.464,5.464 35.51,10.198 59.438,10.443 56.09,0 92.501,-26.246 92.916,-66.882 0.2,-22.268 -14.016,-39.216 -44.8,-53.188 -18.65,-9.055 -30.072,-15.099 -29.951,-24.268 0,-8.137 9.667,-16.839 30.556,-16.839 17.45,-0.27 30.089,3.535 39.937,7.5 l 4.781,2.26 7.234,-42.43 m 137.307,-4.222 h -41.231 c -12.774,0 -22.332,3.487 -27.942,16.234 l -79.245,179.404 h 56.032 c 0,0 9.161,-24.123 11.233,-29.418 6.124,0 60.554,0.084 68.337,0.084 1.596,6.853 6.491,29.334 6.491,29.334 h 49.513 z m -65.418,126.407 c 4.413,-11.279 21.26,-54.723 21.26,-54.723 -0.316,0.522 4.38,-11.334 7.075,-18.684 l 3.606,16.879 c 0,0 10.217,46.728 12.352,56.528 z m -363.293,-126.406 -52.24,133.496 -5.567,-27.13 c -9.725,-31.273 -40.025,-65.155 -73.898,-82.118 l 47.766,171.203 56.456,-0.065 84.004,-195.386 z"
           id="path983" />
        <path
           style="fill:#f2ae14"
           inkscape:connector-curvature="0"
           d="M 131.92,138.465 H 45.879 l -0.681,4.073 c 66.938,16.204 111.231,55.363 129.618,102.414 l -18.71,-89.96 c -3.23,-12.395 -12.597,-16.094 -24.186,-16.526"
           id="path985" />
      </g>
    </g>
    <g
       transform="translate(-1,28.241483)"
       id="g6276">
      <g
         id="g887"
         style="fill:none;fill-rule:evenodd"
         transform="matrix(0.04246285,0,0,0.04246285,0.95753715,39.999999)">
        <rect
           height="471"
           rx="40"
           width="750"
           x="1"
           id="rect883"
           y="0"
           style="fill:#2557d6" />
        <path
           d="m 1.003,221.185 h 36.024 l 8.123,-19.51 h 18.185 l 8.101,19.51 h 70.88 V 206.27 l 6.327,14.98 h 36.796 l 6.327,-15.202 v 15.138 h 176.151 l -0.082,-32.026 h 3.408 c 2.386,0.083 3.083,0.302 3.083,4.226 v 27.8 h 91.106 v -7.455 c 7.349,3.92 18.779,7.455 33.819,7.455 h 38.328 l 8.203,-19.51 h 18.185 l 8.021,19.51 h 73.86 v -18.532 l 11.186,18.532 h 59.187 V 98.678 h -58.576 v 14.468 l -8.202,-14.468 h -60.105 v 14.468 l -7.532,-14.468 h -81.188 c -13.59,0 -25.536,1.889 -35.186,7.153 v -7.153 h -56.026 v 7.153 c -6.14,-5.426 -14.508,-7.153 -23.812,-7.153 H 180.908 L 167.174,130.319 153.07,98.678 H 88.6 v 14.468 L 81.517,98.678 H 26.534 L 1,156.924 v 64.261 z m 227.396,-17.67 h -21.614 l -0.08,-68.794 -30.573,68.793 H 157.62 L 126.968,134.66 v 68.854 H 84.084 l -8.101,-19.592 h -43.9 L 23.9,203.514 H 1 l 37.756,-87.837 h 31.326 l 35.859,83.164 v -83.164 h 34.412 l 27.593,59.587 25.347,-59.587 h 35.104 v 87.837 H 228.4 Z M 68.777,165.692 54.347,130.675 39.997,165.692 Z m 245.642,37.821 h -70.433 v -87.837 h 70.433 v 18.291 H 265.071 V 149.8 h 48.165 v 18.005 H 265.07 v 17.542 h 49.348 v 18.166 z m 99.256,-64.18 c 0,14.004 -9.386,21.24 -14.856,23.412 4.613,1.748 8.553,4.838 10.43,7.397 2.976,4.369 3.49,8.271 3.49,16.116 v 17.255 h -21.266 l -0.08,-11.077 c 0,-5.285 0.508,-12.886 -3.328,-17.112 -3.081,-3.09 -7.777,-3.76 -15.368,-3.76 h -22.633 v 31.95 H 328.98 v -87.838 h 48.495 c 10.775,0 18.714,0.283 25.53,4.207 6.67,3.924 10.67,9.652 10.67,19.45 z m -26.652,13.042 c -2.898,1.752 -6.324,1.81 -10.43,1.81 H 350.98 v -19.51 h 25.962 c 3.674,0 7.508,0.164 9.998,1.584 2.735,1.28 4.427,4.003 4.427,7.765 0,3.84 -1.61,6.929 -4.344,8.351 z m 60.466,51.138 h -21.513 v -87.837 h 21.513 z m 249.74,0 H 667.35 l -39.964,-65.927 v 65.927 h -42.94 l -8.204,-19.592 h -43.799 l -7.96,19.592 H 499.81 c -10.248,0 -23.224,-2.257 -30.572,-9.715 -7.41,-7.458 -11.265,-17.56 -11.265,-33.533 0,-13.027 2.304,-24.936 11.366,-34.347 6.816,-7.01 17.49,-10.242 32.02,-10.242 h 20.412 v 18.821 h -19.984 c -7.694,0 -12.039,1.14 -16.224,5.203 -3.594,3.699 -6.06,10.69 -6.06,19.897 0,9.41 1.878,16.196 5.797,20.628 3.245,3.476 9.144,4.53 14.694,4.53 h 9.469 l 29.716,-69.076 h 31.592 l 35.696,83.081 v -83.08 h 32.103 l 37.062,61.174 V 115.68 h 21.596 v 87.834 z m -128.159,-37.82 -14.591,-35.017 -14.51,35.017 h 29.1 z m 181.885,178.074 c -5.121,7.458 -15.101,11.239 -28.611,11.239 h -40.718 v -18.84 h 40.553 c 4.022,0 6.837,-0.527 8.532,-2.175 a 7.71,7.71 0 0 0 2.493,-5.73 c 0,-2.56 -1.024,-4.592 -2.575,-5.81 -1.53,-1.341 -3.757,-1.95 -7.429,-1.95 -19.797,-0.67 -44.495,0.609 -44.495,-27.194 0,-12.743 8.125,-26.157 30.25,-26.157 h 41.998 v -17.48 h -39.02 c -11.776,0 -20.33,2.808 -26.388,7.174 v -7.175 H 627.83 c -9.23,0 -20.063,2.279 -25.187,7.175 v -7.175 H 499.578 v 7.175 c -8.203,-5.892 -22.043,-7.175 -28.431,-7.175 h -67.983 v 7.175 c -6.49,-6.258 -20.92,-7.175 -29.716,-7.175 h -76.085 l -17.41,18.763 -16.307,-18.763 H 149.99 v 122.592 h 111.516 l 17.94,-19.06 16.9,19.06 68.739,0.061 v -28.838 h 6.757 c 9.12,0.14 19.878,-0.226 29.368,-4.31 v 33.085 h 56.697 v -31.952 h 2.735 c 3.49,0 3.834,0.143 3.834,3.616 v 28.333 H 636.71 c 10.935,0 22.365,-2.787 28.695,-7.845 v 7.845 h 54.632 c 11.369,0 22.471,-1.587 30.918,-5.651 z M 409.452,296.613 c 0,24.406 -18.286,29.445 -36.716,29.445 H 346.43 v 29.469 h -40.98 l -25.962,-29.085 -26.981,29.085 H 168.99 v -87.859 h 84.8 l 25.941,28.799 26.819,-28.799 h 67.371 c 16.732,0 35.532,4.613 35.532,28.945 z m -167.625,40.434 h -51.839 v -17.481 h 46.289 V 301.64 h -46.289 v -15.973 h 52.86 l 23.062,25.604 z m 83.526,10.06 -32.37,-35.788 32.37,-34.651 z m 47.873,-39.066 H 345.98 v -22.374 h 27.492 c 7.612,0 12.896,3.09 12.896,10.773 0,7.598 -5.04,11.601 -13.14,11.601 z M 515.97,267.668 h 70.369 v 18.17 h -49.372 v 15.973 h 48.167 v 17.925 h -48.167 v 17.481 l 49.372,0.08 v 18.23 h -70.37 v -87.859 z m -27.054,47.03 c 4.693,1.724 8.53,4.816 10.329,7.375 2.977,4.29 3.408,8.293 3.493,16.037 v 17.417 H 481.57 v -10.992 c 0,-5.286 0.511,-13.112 -3.408,-17.198 -3.08,-3.147 -7.777,-3.9 -15.468,-3.9 h -22.533 v 32.09 h -21.186 v -87.859 h 48.678 c 10.674,0 18.448,0.47 25.369,4.146 6.654,4.004 10.839,9.488 10.839,19.51 -0.003,14.024 -9.395,21.18 -14.945,23.373 z M 477,303.59 c -2.82,1.667 -6.308,1.81 -10.41,1.81 h -25.614 v -19.733 h 25.962 c 3.754,0 7.51,0.08 10.062,1.587 2.732,1.423 4.366,4.144 4.366,7.903 0,3.76 -1.634,6.788 -4.366,8.433 z m 190.336,5.597 c 4.106,4.23 6.306,9.572 6.306,18.614 0,18.9 -11.858,27.723 -33.122,27.723 h -41.065 v -18.84 h 40.9 c 4,0 6.836,-0.527 8.613,-2.175 1.45,-1.359 2.49,-3.333 2.49,-5.73 0,-2.56 -1.125,-4.592 -2.573,-5.81 -1.612,-1.34 -3.836,-1.95 -7.508,-1.95 -19.717,-0.67 -44.41,0.61 -44.41,-27.193 0,-12.744 8.04,-26.158 30.144,-26.158 h 42.269 v 18.7 h -38.677 c -3.834,0 -6.327,0.143 -8.447,1.587 -2.31,1.422 -3.166,3.534 -3.166,6.32 0,3.315 1.96,5.57 4.613,6.545 2.224,0.77 4.613,0.996 8.205,0.996 l 11.35,0.305 c 11.446,0.278 19.303,2.249 24.078,7.066 z M 751,285.667 h -38.427 c -3.836,0 -6.385,0.143 -8.532,1.587 -2.224,1.423 -3.081,3.534 -3.081,6.322 0,3.314 1.878,5.569 4.61,6.544 2.225,0.77 4.614,0.996 8.126,0.996 l 11.427,0.304 c 11.531,0.284 19.228,2.258 23.921,7.072 0.855,0.67 1.368,1.422 1.956,2.175 z"
           id="path885"
           inkscape:connector-curvature="0"
           style="fill:#ffffff" />
      </g>
      <g
         style="fill:none;fill-rule:evenodd"
         id="g958"
         transform="matrix(0.04246285,0,0,0.04246285,36.017443,39.999999)">
        <rect
           style="fill:#0079be"
           y="0"
           x="0"
           width="750"
           height="471"
           rx="40"
           id="rect950" />
        <path
           style="fill:#ffffff"
           inkscape:connector-curvature="0"
           d="m 584.934,237.947 c 0,-99.415 -82.981,-168.133 -173.895,-168.1 h -78.242 c -92.003,-0.033 -167.73,68.705 -167.73,168.1 0,90.93 75.727,165.64 167.73,165.204 h 78.242 c 90.914,0.436 173.895,-74.293 173.895,-165.204 z"
           id="path952" />
        <path
           style="fill:#0079be"
           inkscape:connector-curvature="0"
           d="m 333.28,83.93 c -84.07,0.027 -152.194,68.308 -152.214,152.58 0.02,84.258 68.144,152.533 152.214,152.56 84.09,-0.027 152.228,-68.302 152.24,-152.56 C 485.508,152.238 417.37,83.957 333.28,83.93 Z"
           id="path954" />
        <path
           style="fill:#ffffff"
           inkscape:connector-curvature="0"
           d="m 237.066,236.098 c 0.08,-41.18 25.746,-76.296 61.94,-90.25 v 180.48 c -36.194,-13.947 -61.861,-49.044 -61.94,-90.23 z m 131,90.275 V 145.847 c 36.207,13.92 61.914,49.057 61.98,90.257 -0.066,41.212 -25.773,76.322 -61.98,90.269 z"
           id="path956" />
      </g>
      <g
         style="fill:none;fill-rule:evenodd"
         id="g1635"
         transform="matrix(0.04246285,0,0,0.04246285,106.0523,39.999999)">
        <rect
           style="fill:#0e4c96"
           y="0"
           x="0"
           width="750"
           height="471"
           rx="40"
           id="rect1625" />
        <path
           style="fill:#ffffff"
           inkscape:connector-curvature="0"
           d="m 617.243,346.766 c 0,41.615 -33.728,75.36 -75.36,75.36 H 132.757 V 124.245 c 0,-41.626 33.733,-75.37 75.365,-75.37 l 409.12,-10e-4 v 297.892 z"
           id="path1627" />
        <path
           style="fill:url(#a)"
           inkscape:connector-curvature="0"
           d="m 483.859,242.045 c 11.684,0.253 23.437,-0.516 35.077,0.4 11.787,2.2 14.628,20.043 4.156,25.888 -7.141,3.85 -15.633,1.432 -23.379,2.113 H 483.86 V 242.045 Z M 525.692,209.9 c 2.596,9.165 -6.238,17.392 -15.066,16.13 h -26.767 c 0.185,-8.642 -0.368,-18.021 0.272,-26.208 10.724,0.301 21.549,-0.616 32.21,0.48 4.58,1.15 8.413,4.916 9.35,9.598 z M 590.12,73.997 c 0.498,17.501 0.071,35.927 0.214,53.783 -0.035,72.596 0.072,145.194 -0.055,217.79 -0.469,27.207 -24.582,50.844 -51.6,51.387 -27.046,0.111 -54.095,0.016 -81.142,0.047 v -109.75 c 29.47,-0.154 58.959,0.307 88.417,-0.232 13.667,-0.86 28.632,-9.876 29.27,-24.915 1.61,-15.102 -12.632,-25.55 -26.153,-27.201 -5.198,-0.135 -5.044,-1.515 0,-2.117 12.892,-2.787 23.02,-16.133 19.226,-29.499 -3.236,-14.058 -18.773,-19.499 -31.697,-19.472 -26.351,-0.18 -52.709,-0.026 -79.063,-0.077 0.172,-20.489 -0.354,-41 0.286,-61.474 2.087,-26.716 26.806,-48.747 53.447,-48.27 z"
           id="path1629" />
        <path
           style="fill:url(#b)"
           inkscape:connector-curvature="0"
           d="m 159.74,125.04 c 0.674,-27.163 24.889,-50.611 51.875,-51.007 26.944,-0.083 53.891,-0.012 80.837,-0.036 -0.074,90.885 0.148,181.777 -0.112,272.658 -1.038,26.834 -24.99,49.834 -51.679,50.307 -26.996,0.099 -53.995,0.014 -80.992,0.042 V 283.551 c 26.223,6.194 53.722,8.832 80.473,4.721 15.993,-2.575 33.488,-10.424 38.902,-27.014 3.986,-14.192 1.742,-29.126 2.334,-43.692 v -33.824 h -46.297 c -0.208,22.37 0.426,44.78 -0.335,67.125 -1.248,13.734 -14.846,22.46 -27.8,21.995 -16.066,0.169 -47.898,-11.64 -47.898,-11.64 -0.08,-41.917 0.466,-94.408 0.692,-136.182 z"
           id="path1631" />
        <path
           style="fill:url(#c)"
           inkscape:connector-curvature="0"
           d="m 309.72,197.39 c -2.434,0.517 -0.49,-8.3 -1.114,-11.646 0.166,-21.15 -0.346,-42.323 0.284,-63.458 2.083,-26.829 26.991,-48.916 53.739,-48.288 h 78.766 c -0.074,90.884 0.147,181.775 -0.112,272.656 -1.039,26.834 -24.992,49.833 -51.68,50.308 -26.998,0.1 -53.998,0.015 -80.997,0.043 V 272.708 c 18.44,15.128 43.5,17.484 66.472,17.525 17.317,-0.006 34.534,-2.675 51.35,-6.67 V 260.79 c -18.953,9.447 -41.233,15.446 -62.243,10.018 -14.656,-3.65 -25.294,-17.811 -25.056,-32.936 -1.699,-15.728 7.524,-32.335 22.981,-37.011 19.19,-6.008 40.108,-1.413 58.096,6.398 3.855,2.018 7.765,4.521 6.222,-1.921 v -17.9 c -30.084,-7.157 -62.101,-9.792 -92.329,-2.004 -8.748,2.468 -17.27,6.21 -24.379,11.956 z"
           id="path1633" />
      </g>
      <g
         style="fill:none;fill-rule:evenodd"
         id="g2308"
         transform="matrix(0.04246285,0,0,0.04246285,71.03487,39.999999)">
        <rect
           style="fill:#f4f4f4"
           y="0"
           x="0"
           height="471"
           rx="40"
           width="750"
           id="rect2298" />
        <path
           style="fill:#000000"
           inkscape:connector-curvature="0"
           d="m 618.579,422.143 c -1.213,0.03 -2.213,0.432 -2.998,1.207 -0.785,0.776 -1.192,1.746 -1.22,2.911 0.028,1.157 0.435,2.125 1.22,2.904 0.785,0.78 1.785,1.184 2.998,1.215 1.185,-0.03 2.171,-0.436 2.96,-1.215 0.787,-0.78 1.196,-1.747 1.226,-2.904 -0.03,-1.165 -0.437,-2.135 -1.223,-2.91 -0.786,-0.776 -1.774,-1.179 -2.963,-1.208 z m 0,7.329 c -0.925,-0.023 -1.687,-0.336 -2.287,-0.94 -0.6,-0.602 -0.91,-1.36 -0.932,-2.27 0.021,-0.916 0.332,-1.672 0.932,-2.27 0.6,-0.599 1.362,-0.909 2.287,-0.93 0.904,0.021 1.655,0.331 2.25,0.93 0.596,0.598 0.905,1.354 0.927,2.27 -0.022,0.91 -0.33,1.668 -0.926,2.27 -0.596,0.604 -1.347,0.917 -2.251,0.94 z m 0.242,-5.139 h -1.766 v 3.826 h 0.817 v -1.433 h 0.374 l 1.16,1.433 h 0.978 l -1.25,-1.443 c 0.39,-0.05 0.69,-0.176 0.901,-0.38 0.21,-0.204 0.317,-0.465 0.32,-0.781 -0.004,-0.378 -0.137,-0.675 -0.4,-0.891 -0.264,-0.216 -0.642,-0.326 -1.134,-0.33 z m -0.01,0.717 c 0.219,0 0.39,0.043 0.515,0.127 a 0.434,0.434 0 0 1 0.19,0.378 0.446,0.446 0 0 1 -0.19,0.386 c -0.124,0.086 -0.296,0.129 -0.515,0.129 h -0.939 v -1.02 z m -458.605,2.703 h -8.755 V 386.87 h 8.584 v 4.982 c 0,0 7.539,-6.089 12.017,-6.013 8.706,0.148 13.905,7.559 13.905,7.559 0,0 4.217,-7.559 13.733,-7.559 14.073,0 16.137,12.884 16.137,12.884 v 28.857 h -8.412 v -25.422 c 0,0 0.03,-7.73 -9.098,-7.73 -9.44,0 -10.3,7.73 -10.3,7.73 v 25.423 h -8.755 v -25.595 c 0,0 -0.841,-8.073 -8.756,-8.073 -10.278,0 -10.471,8.245 -10.471,8.245 z m 266.254,-41.92 c -4.478,-0.075 -12.016,6.013 -12.016,6.013 v -4.971 h -8.593 v 40.874 h 8.76 l -0.167,-25.593 c 0,0 0.193,-8.228 10.472,-8.228 1.909,0 3.391,0.463 4.565,1.175 v -0.033 l 2.853,-7.96 c -1.722,-0.725 -3.68,-1.239 -5.874,-1.276 z m 123.33,0 c -4.477,-0.075 -12.015,6.013 -12.015,6.013 v -4.971 h -8.593 v 40.874 h 8.76 l -0.167,-25.593 c 0,0 0.193,-8.228 10.472,-8.228 1.909,0 3.391,0.463 4.565,1.175 v -0.033 l 2.853,-7.96 c -1.722,-0.725 -3.68,-1.239 -5.874,-1.276 z m -305.653,-0.167 c -13.103,0 -20.037,11.784 -20.072,21.629 -0.036,10.091 7.894,21.73 20.44,21.73 7.32,0 13.334,-5.407 13.334,-5.407 l -0.016,4.164 h 8.618 V 386.86 h -8.648 v 5.155 c 0,0 -5.647,-6.348 -13.656,-6.348 z m 1.678,8.33 c 7.04,0 12.754,6.126 12.754,13.668 0,7.543 -5.715,13.636 -12.754,13.636 -7.04,0 -12.721,-6.093 -12.721,-13.636 0,-7.542 5.681,-13.669 12.72,-13.669 z m 249.646,-8.33 c -13.103,0 -20.037,11.784 -20.072,21.629 -0.036,10.091 7.894,21.73 20.44,21.73 7.32,0 13.334,-5.407 13.334,-5.407 l -0.016,4.164 h 8.618 V 386.86 h -8.648 v 5.155 c 0,0 -5.647,-6.348 -13.656,-6.348 z m 1.678,8.33 c 7.04,0 12.754,6.126 12.754,13.668 0,7.543 -5.715,13.636 -12.754,13.636 -7.04,0 -12.721,-6.093 -12.721,-13.636 0,-7.542 5.681,-13.669 12.72,-13.669 z m 81.066,-8.33 c -13.102,0 -20.036,11.784 -20.071,21.629 -0.036,10.091 7.893,21.73 20.44,21.73 7.32,0 13.334,-5.407 13.334,-5.407 l -0.016,4.164 h 8.618 v -57.078 h -8.648 v 21.31 c 0,0 -5.648,-6.348 -13.657,-6.348 z m 1.678,8.33 c 7.04,0 12.755,6.126 12.755,13.668 0,7.543 -5.715,13.636 -12.755,13.636 -7.04,0 -12.72,-6.093 -12.72,-13.636 0,-7.542 5.68,-13.669 12.72,-13.669 z m -287.148,35.13 c -8.926,0 -17.167,-5.497 -17.167,-5.497 l 3.777,-5.84 c 0,0 7.797,3.607 13.39,3.607 3.634,0 9.712,-1.174 9.785,-4.81 0.078,-3.842 -10.214,-4.981 -10.214,-4.981 0,0 -15.364,-0.21 -15.364,-12.883 0,-7.97 7.673,-13.055 17.51,-13.055 5.684,0 16.308,4.981 16.308,4.981 l -4.291,6.7 c 0,0 -8.204,-3.28 -12.532,-3.436 -3.655,-0.132 -8.069,1.62 -8.069,4.81 0,8.668 25.58,-0.676 25.58,16.834 0,11.487 -10.418,13.57 -18.713,13.57 z m 32.93,-54.108 v 11.892 h -7.619 v 8.597 h 7.62 v 20.555 c 0,0 -0.675,13.904 14.264,13.904 4.13,0 12.218,-3.056 12.218,-3.056 l -3.457,-8.934 c 0,0 -3.217,2.745 -6.848,2.653 -6.904,-0.174 -6.713,-4.6 -6.713,-4.6 v -20.524 h 14.233 v -8.595 h -14.232 v -11.891 h -9.465 z m 51.858,11.15 c -14.05,0 -21.07,11.58 -21.012,21.63 0.06,10.335 6.392,21.965 21.85,21.965 6.617,0 15.91,-5.81 15.91,-5.81 L 390.277,417 c 0,0 -6.341,4.5 -11.915,4.5 -11.16,0 -11.882,-10.915 -11.882,-10.915 h 29.872 c 0,0 2.229,-24.416 -18.83,-24.416 z m -1.276,8.028 c 0.331,-0.02 0.687,0 1.04,0 10.514,0 10.44,9.94 10.44,9.94 H 366.48 c 0,0 -0.503,-9.356 9.767,-9.94 z m 90.132,22.699 4.006,8.017 c 0,0 -6.349,4.13 -13.474,4.13 -14.751,0 -22.943,-11.11 -22.943,-21.621 0,-16.52 13.036,-21.378 21.85,-21.378 8.001,0 14.931,4.616 14.931,4.616 l -4.491,8.016 c 0,0 -2.723,-4.25 -10.682,-4.25 -7.946,0 -12.14,6.854 -12.14,13.36 0,7.291 4.881,13.483 12.261,13.483 5.79,0 10.682,-4.373 10.682,-4.373 z"
           id="path2300" />
        <path
           style="fill:#f79f1a"
           inkscape:connector-curvature="0"
           d="m 624.508,278.631 v -5.52 h -1.44 l -1.658,3.796 -1.657,-3.796 h -1.44 v 5.52 h 1.017 v -4.164 l 1.553,3.59 h 1.055 l 1.553,-3.6 v 4.174 z m -9.123,0 v -4.578 h 1.845 v -0.933 h -4.698 v 0.933 h 1.845 v 4.578 z m 9.412,-82.071 c 0,85.425 -69.077,154.676 -154.288,154.676 -85.21,0 -154.288,-69.25 -154.288,-154.676 0,-85.426 69.077,-154.677 154.289,-154.677 85.21,0 154.288,69.251 154.288,154.677 z"
           id="path2302" />
        <path
           style="fill:#ea001b"
           inkscape:connector-curvature="0"
           d="m 434.46,196.56 c 0,85.425 -69.078,154.676 -154.288,154.676 -85.212,0 -154.288,-69.25 -154.288,-154.676 0,-85.426 69.076,-154.677 154.288,-154.677 85.21,0 154.287,69.251 154.287,154.677 z"
           id="path2304" />
        <path
           style="fill:#ff5f01"
           inkscape:connector-curvature="0"
           d="m 375.34,74.797 c -35.999,28.317 -59.107,72.318 -59.107,121.748 0,49.43 23.108,93.466 59.108,121.782 35.999,-28.316 59.107,-72.352 59.107,-121.782 0,-49.43 -23.108,-93.431 -59.107,-121.748 z"
           id="path2306" />
      </g>
      <g
         style="fill:none;fill-rule:evenodd"
         id="g2948"
         transform="matrix(0.04246285,0,0,0.04246285,141.06974,39.999999)">
        <rect
           style="fill:#0e4595"
           y="0"
           x="0"
           height="471"
           rx="40"
           width="750"
           id="rect2942" />
        <path
           style="fill:#ffffff"
           inkscape:connector-curvature="0"
           d="m 278.197,334.228 33.361,-195.763 h 53.36 l -33.385,195.763 z m 246.11,-191.54 c -10.572,-3.966 -27.136,-8.222 -47.822,-8.222 -52.725,0 -89.865,26.55 -90.18,64.603 -0.298,28.13 26.513,43.822 46.753,53.186 20.77,9.594 27.752,15.714 27.654,24.283 -0.132,13.121 -16.587,19.116 -31.923,19.116 -21.357,0 -32.703,-2.966 -50.226,-10.276 l -6.876,-3.111 -7.49,43.824 c 12.464,5.464 35.51,10.198 59.438,10.443 56.09,0 92.501,-26.246 92.916,-66.882 0.2,-22.268 -14.016,-39.216 -44.8,-53.188 -18.65,-9.055 -30.072,-15.099 -29.951,-24.268 0,-8.137 9.667,-16.839 30.556,-16.839 17.45,-0.27 30.089,3.535 39.937,7.5 l 4.781,2.26 7.234,-42.43 m 137.307,-4.222 h -41.231 c -12.774,0 -22.332,3.487 -27.942,16.234 l -79.245,179.404 h 56.032 c 0,0 9.161,-24.123 11.233,-29.418 6.124,0 60.554,0.084 68.337,0.084 1.596,6.853 6.491,29.334 6.491,29.334 h 49.513 z m -65.418,126.407 c 4.413,-11.279 21.26,-54.723 21.26,-54.723 -0.316,0.522 4.38,-11.334 7.075,-18.684 l 3.606,16.879 c 0,0 10.217,46.728 12.352,56.528 z m -363.293,-126.406 -52.24,133.496 -5.567,-27.13 c -9.725,-31.273 -40.025,-65.155 -73.898,-82.118 l 47.766,171.203 56.456,-0.065 84.004,-195.386 z"
           id="path2944" />
        <path
           style="fill:#f2ae14"
           inkscape:connector-curvature="0"
           d="M 131.92,138.465 H 45.879 l -0.681,4.073 c 66.938,16.204 111.231,55.363 129.618,102.414 l -18.71,-89.96 c -3.23,-12.395 -12.597,-16.094 -24.186,-16.526"
           id="path2946" />
      </g>
      <g
         transform="matrix(0.14111109,0,0,0.14111109,147.50085,10.263646)"
         id="g4172">
        <path
           inkscape:connector-curvature="0"
           id="path3595"
           style="fill:#006398;fill-rule:evenodd"
           d="M 201.4971,210.7301 H 442.442 V 352.4624 H 201.4971 Z" />
        <g
           id="Layer1000">
          <path
             inkscape:connector-curvature="0"
             id="path3597"
             style="fill:#ffffff;fill-rule:evenodd"
             d="m 353.8597,284.4572 c 8.167,0 12.2908,-1.238 12.2908,4.1612 0,6.7692 -0.9927,5.7344 -12.2878,5.7344 z m 0.085,-15.1611 c 9.4023,0 10.8494,-1.103 10.847,4.856 -0.002,5.8257 -2.8896,4.7012 -10.9351,4.7011 z m -7.5974,30.7686 16.3187,0.0875 c 5.9155,0 10.9226,-2.3066 10.9226,-8.2571 0,-4.5724 0.7328,-9.2529 -5.3051,-10.7977 3.8095,-3.2111 4.005,-1.4796 4.005,-9.409 0,-5.723 -3.3304,-7.7831 -8.8256,-8.137 -4.2739,-0.2752 -12.9448,-0.3805 -17.1156,0.0103 z" />
          <path
             inkscape:connector-curvature="0"
             id="path3599"
             style="fill:#ffffff;fill-rule:evenodd"
             d="m 240.6056,266.7732 c 0.5101,1.1813 12.4138,12.3975 13.0857,13.4104 1.5896,2.3958 -1.7283,4.6664 -2.7364,5.6763 -3.0051,3.0107 -5.9675,5.7603 -9.0212,8.7286 -1.1345,1.1028 -1.3526,0.8611 -1.3426,3.025 0.0135,2.9133 -0.1719,11.6013 0.1309,13.2805 l 25.2426,-24.7721 c 1.0913,-1.01 2.8474,-2.1418 2.9566,-4.3571 0.1345,-2.7285 -3.7112,-5.1239 -6.3567,-8.005 -4.359,-4.7471 -9.9675,-9.6708 -14.6186,-14.3259 -1.2432,-1.2445 -2.2934,-2.4258 -3.4801,-3.6198 -0.7906,-0.7953 -3.0746,-3.052 -3.8441,-3.5155 z" />
          <path
             inkscape:connector-curvature="0"
             id="path3601"
             style="fill:#ffffff;fill-rule:evenodd"
             d="m 235.5757,310.894 c 0.2822,-2.2693 0.118,-11.4058 0.1156,-14.3569 -0.001,-1.242 -9.0279,-9.3484 -10.4855,-10.8135 -0.8927,-0.8968 -3.0625,-2.4788 -3.009,-4.2002 0.049,-1.5781 4.7731,-5.5809 6.6513,-7.6667 1.154,-1.2817 2.3127,-2.3426 3.535,-3.565 1.8649,-1.8649 3.3082,-2.6657 3.3082,-4.0646 l -0.0124,-13.9285 c -1.2532,0.7519 -15.0834,14.9687 -18.1446,17.6234 -2.7496,2.3843 -4.3572,4.6437 -7.2152,7.2445 -5.4199,4.9322 -3.0026,6.2813 3.4941,12.3025 4.9104,4.5511 9.6826,10.0073 14.5605,14.3854 1.3606,1.2213 2.3039,2.2578 3.6055,3.4966 1.0938,1.0411 2.7764,2.4296 3.5965,3.543 z" />
          <path
             inkscape:connector-curvature="0"
             id="path3603"
             style="fill:#ffffff;fill-rule:evenodd"
             d="m 325.7474,269.5892 5.2915,16.9179 -10.6205,-0.1371 z m -17.6122,30.4587 7.8545,0.1134 2.4643,-7.555 14.1921,-0.0242 c 0.9352,0.7876 2.3717,6.0706 2.7289,7.5324 l 7.8721,0.0352 -12.3351,-36.6059 c -12.4501,-0.6359 -10.2977,-0.7588 -15.3059,14.3293 -1.706,5.1395 -6.4245,18.1645 -7.4709,22.1748 z" />
          <path
             inkscape:connector-curvature="0"
             id="path3605"
             style="fill:#ffffff;fill-rule:evenodd"
             d="m 392.8519,269.6019 5.3043,16.8971 -10.6756,-0.0338 z m -17.6096,30.535 7.3574,0.0168 c 0.7722,-0.1848 1.2729,-2.5244 1.6374,-3.6185 0.4207,-1.2627 0.9527,-2.6742 1.2507,-3.9531 h 14.6732 l 2.372,7.5563 7.8041,-0.0111 -9.2607,-27.529 c -0.5533,-1.6184 -1.0546,-3.1062 -1.5907,-4.6901 -0.4097,-1.21 -0.7837,-3.7847 -1.8675,-4.4116 -5.2443,0 -9.394,-0.7256 -11.221,3.5257 z" />
          <path
             inkscape:connector-curvature="0"
             id="path3607"
             style="fill:#ffffff;fill-rule:evenodd"
             d="m 280.9547,272.7807 v 16.6569 c 0,7.8258 5.8041,10.6495 13.4453,10.6495 l 10.5219,-0.0964 c -0.005,-6.6496 -1.5147,-6.2548 -7.7915,-6.2492 -10.5633,0.01 -8.6727,-1.8485 -8.6727,-19.5955 0,-3.9479 2.0036,-5.3961 5.9423,-5.3961 h 10.786 c 0.4541,-7.4809 -1.8377,-6.3456 -11.3321,-6.3456 -7.1697,0 -12.8992,3.0462 -12.8992,10.3764 z" />
          <path
             inkscape:connector-curvature="0"
             id="path3609"
             style="fill:#ffffff;fill-rule:evenodd"
             d="m 412.9098,300.1522 c 3.7634,0 21.4156,0.4578 23.6243,-0.1796 0,-1.1247 0.1623,-4.4652 0.0129,-5.3288 -0.2073,-1.2001 -1.6967,-0.7053 -4.7958,-0.7051 -3.7759,2e-4 -7.5519,0 -11.3278,0 v -30.8562 c -9.7138,-2.061 -7.5136,6.6357 -7.5136,14.6133 0,7.4856 0,14.971 0,22.4564 z" />
        </g>
      </g>
      <g
         transform="matrix(0.02611989,0,0,0.02611989,208.30815,35.577903)"
         id="g5000">
        <g
           id="g4986">
          <g
             id="g4984">
            <path
               inkscape:connector-curvature="0"
               class="st0"
               d="m 481.7,338.4 c 22.5,-7.5 46.5,-11.5 71.4,-11.5 109,0 200,77.4 220.8,180.3 L 928.4,475.7 C 893,300.9 738.4,169.3 553.1,169.3 c -42.5,0 -83.2,6.9 -121.4,19.7 z"
               id="path4978"
               style="fill:#ffff00;fill-opacity:1" />
            <path
               inkscape:connector-curvature="0"
               class="st1"
               d="M 299.4,839 403.9,720.9 c -46.6,-41.3 -76,-101.6 -76,-168.8 0,-67.1 29.4,-127.4 76,-168.6 L 299.4,265.3 C 220.2,335.5 170.2,438 170.2,552.1 c 0,114.2 50,216.7 129.2,286.9"
               id="path4980"
               style="fill:#04d6d6;fill-opacity:1" />
            <path
               inkscape:connector-curvature="0"
               class="st2"
               d="M 773.9,597.3 C 753,700.1 662.1,777.4 553.2,777.4 c -25,0 -49.1,-4 -71.5,-11.6 l -50,149.6 c 38.2,12.7 79,19.6 121.5,19.6 185.1,0 339.6,-131.4 375.2,-306 z"
               id="path4982"
               style="fill:#ff6600" />
          </g>
        </g>
        <path
           inkscape:connector-curvature="0"
           d="m 1063.5,725.8 c -5.1,-8.2 -11.9,-21.3 -16.1,-31 -24.5,-56.8 -25.6,-115.6 -5,-172 22.7,-61.9 66.1,-109.2 122.2,-133.4 70.5,-30.3 148.4,-24.4 216,15.7 42.9,24.6 73.3,62.6 96.4,116.4 2.9,6.9 5.5,14.2 8.1,20.5 z m 140.8,-245.1 c -50.1,21.5 -75.9,68.5 -70.5,123.5 l 212,-91.3 c -36.5,-42.8 -83.9,-57 -141.5,-32.2 z m 167.9,198.6 c -0.1,0 -0.1,0.1 -0.1,0.1 l -4.4,-3 c -12.7,20.5 -32.4,37.2 -57.3,48 -47.4,20.6 -91.3,15.3 -122.9,-12.4 l -2.9,4.4 c 0,0 0,-0.1 -0.1,-0.1 l -53.8,80.5 c 13.4,9.3 27.7,17.1 42.7,23.4 59.4,24.7 120.2,23.5 180.1,-2.5 43.3,-18.8 77.3,-47.4 100.5,-83.7 z"
           id="path4988" />
        <path
           inkscape:connector-curvature="0"
           d="m 1632.4,271 v 447.4 l 69.6,28.2 -39.5,92.2 -76.8,-32 c -17.2,-7.5 -29,-18.9 -37.8,-31.8 -8.5,-13.1 -14.8,-31.2 -14.8,-55.4 V 271 Z"
           id="path4990" />
        <g
           id="g4998">
          <path
             inkscape:connector-curvature="0"
             d="m 1812.6,604.5 c 0,-38.1 16.9,-72.3 43.5,-95.5 l -71.4,-79.6 c -48.4,42.8 -78.9,105.3 -78.9,174.9 -0.1,69.7 30.4,132.3 78.7,175.1 l 71.3,-79.6 c -26.5,-23.3 -43.2,-57.3 -43.2,-95.3 z"
             id="path4992" />
          <path
             inkscape:connector-curvature="0"
             d="m 1939.4,731.4 c -14,0 -27.6,-2.4 -40.2,-6.6 l -34.1,101.3 c 23.3,7.8 48.2,12.1 74.2,12.1 113,0.1 207.3,-80.1 229.2,-186.6 l -104.8,-21.4 c -11.9,57.9 -63,101.3 -124.3,101.2 z"
             id="path4994" />
          <path
             inkscape:connector-curvature="0"
             d="m 1939.7,370.8 c -25.9,0 -50.8,4.2 -74.1,11.9 l 33.8,101.4 c 12.7,-4.2 26.2,-6.5 40.2,-6.5 61.4,0.1 112.6,43.7 124.2,101.7 l 104.8,-21.2 C 2147.1,451.4 2052.8,370.9 1939.7,370.8 Z"
             id="path4996" />
        </g>
      </g>
      <g
         id="g5653"
         transform="matrix(0.08973943,0,0,0.08973943,268.02262,40)">
        <path
           style="fill:#b82126"
           inkscape:connector-curvature="0"
           d="M 140.55454,0 H 87.490039 C 64.043846,1.1085884 44.878232,10.552194 39.344335,30.026363 36.458789,40.182561 34.870784,51.33679 32.61441,61.864862 21.143585,115.39772 10.972312,170.40401 0,222.86748 h 413.12055 c 31.938,0 53.86654,-6.74902 59.79342,-32.0968 2.75287,-11.77536 5.39017,-25.1136 8.02445,-38.05082 C 491.20618,102.27758 501.48298,51.838318 512,0 H 140.55454"
           id="path5649" />
        <path
           style="fill:#ffffff"
           inkscape:connector-curvature="0"
           d="m 353.69964,133.15313 c -5.72938,5.60891 -21.81221,7.20213 -20.16678,-6.20524 1.36634,-11.1355 13.4897,-13.50174 26.63003,-11.89346 -0.97682,6.09079 -2.0972,13.825 -6.46325,18.0987 z m -18.0987,-43.436675 c -0.54714,3.072 -1.38742,5.851859 -2.06808,8.790337 6.56063,-1.644423 26.98943,-6.688125 28.95812,2.068078 0.65355,2.90936 -0.47385,6.00044 -1.29305,8.27432 -18.47416,-1.74983 -33.53098,1.31916 -37.49045,14.47856 -2.65236,8.81443 0.29716,17.48831 5.94723,19.90977 10.88151,4.66121 24.11721,-0.67865 28.69911,-8.01531 -0.47586,2.53992 -0.92662,5.10494 -0.77603,8.27332 h 9.56637 c 0.10139,-9.16179 1.4346,-16.57776 2.84411,-24.82196 1.20169,-7.02043 3.46152,-13.97057 3.10211,-20.166778 -0.8212,-14.190431 -24.33004,-9.170823 -37.48944,-8.790337 z m 95.9227,47.831845 c -7.48424,0.16062 -11.20577,-4.47147 -11.37644,-12.15147 -0.29816,-13.45054 5.60188,-28.393912 17.58168,-29.734148 5.57779,-0.623435 9.61656,0.673632 13.70353,2.069083 -3.75166,15.108015 -2.39737,39.441065 -19.90877,39.816535 z M 456.3446,66.446557 c -0.95272,8.354635 -2.2267,16.38902 -3.87715,24.044925 -27.27153,-8.631717 -43.99686,11.432658 -43.69669,36.197398 0.0592,4.78971 0.88345,9.53926 3.87915,12.9275 5.16217,5.8388 19.94391,7.23526 27.40606,2.32809 1.44565,-0.94971 2.92141,-2.67846 3.87915,-3.87815 0.71881,-0.90353 1.86127,-3.26676 2.06708,-2.5871 -0.39153,2.62525 -0.97782,5.05574 -1.03304,8.01631 h 10.08339 c 1.94259,-27.8769 7.95206,-51.687906 12.41048,-77.048973 z M 171.67862,133.41214 c -5.94824,6.29961 -20.57136,6.20323 -21.71784,-4.39617 -0.49995,-4.61202 1.21876,-9.44791 2.06808,-14.21955 0.85936,-4.82986 1.47777,-9.46397 2.32609,-13.70453 5.85888,-7.153945 23.07514,-8.017317 24.82196,3.87915 1.51592,10.32835 -2.57205,23.22372 -7.49829,28.4411 z m 8.79134,-43.695685 c -9.40976,-3.534808 -20.87856,0.684674 -25.84998,4.698353 0.0171,0.17669 -0.11846,0.200784 -0.26503,0.213835 0.0853,-0.07128 0.17669,-0.142557 0.26503,-0.213835 -0.001,-0.01506 -0.002,-0.02811 -0.006,-0.04417 0.0843,-1.726745 0.6917,-2.928439 0.77603,-4.65418 h -9.56637 c -3.98657,26.522602 -8.71404,52.303302 -13.70353,77.823992 h 11.11743 c 1.60929,-9.93982 2.67244,-20.42478 4.91319,-29.73314 2.53892,9.79024 19.11768,7.91893 26.11301,4.13716 14.43539,-7.80549 25.56888,-44.9546 6.20624,-52.228012 z m 52.74403,18.615715 h -26.113 c 0.82623,-6.00345 6.22732,-12.602225 14.73656,-12.927496 8.00929,-0.306196 13.74369,2.940487 11.37644,12.927496 z M 222.61358,88.682416 c -8.03338,0.618415 -14.8239,2.930447 -19.64975,8.014306 -5.91912,6.236358 -10.71285,20.023218 -9.30836,32.578258 2.00382,17.91197 24.30594,17.26946 42.14462,12.9275 0.30319,-3.14328 1.06416,-5.83078 1.55106,-8.79034 -7.3487,2.74974 -20.10754,6.58773 -27.66506,1.81007 -5.70629,-3.60809 -5.73942,-12.74478 -3.87815,-20.6848 11.98883,-0.38149 24.4495,-0.3082 36.4554,0 0.76198,-5.62798 2.94149,-11.76395 1.03404,-17.322665 -2.51583,-7.338667 -11.52,-9.238086 -20.6838,-8.532329 z m -97.73276,1.034039 c -0.30118,0.04317 -0.2811,0.408596 -0.25902,0.775027 -2.44956,18.320568 -5.76451,35.776758 -9.30735,53.004048 h 11.11743 c 2.67143,-18.44405 5.73138,-36.49857 9.56636,-53.779075 z M 414.977,89.974463 c -9.82638,-4.912189 -18.00633,3.331012 -21.20081,8.273317 0.90955,-2.535906 0.96176,-5.931168 1.80907,-8.531325 h -9.82538 c -2.64835,18.466135 -5.84283,36.387135 -9.56637,53.779075 h 11.37644 c 0.0723,-7.12784 1.47174,-12.40044 2.58509,-19.39175 2.37829,-14.9253 5.86792,-31.294243 23.27091,-26.372015 0.57725,-2.524863 0.81719,-5.388047 1.55105,-7.757302 z M 290.09518,130.82604 c -1.024,-2.64734 -1.29004,-7.01942 -1.03404,-10.3424 0.57525,-7.47118 3.29688,-16.56671 7.49829,-20.683797 5.79765,-5.6832 17.24336,-4.742525 26.37202,-1.552063 0.28311,-3.077019 0.90152,-5.820737 1.29305,-8.789333 -14.97248,-2.445553 -29.18099,-0.924612 -36.71441,6.980267 -7.37381,7.738226 -12.20869,25.523706 -8.79134,36.714416 4.00062,13.09515 21.93468,13.80693 36.45741,8.79134 0.6415,-2.63228 0.98183,-5.56675 1.55106,-8.27432 -7.935,4.1231 -23.10526,6.26547 -26.63204,-2.84411 z m -6.20423,-41.109585 c -9.85851,-3.981553 -17.60778,2.746729 -21.20082,9.049349 0.81418,-2.803953 1.1505,-6.087781 1.80907,-9.049349 h -9.82538 c -2.40138,18.627765 -5.94221,36.116075 -9.30736,53.779075 h 11.11843 c 1.55809,-10.48496 2.23072,-24.61716 5.68722,-34.64634 2.76279,-8.0143 9.99303,-14.841974 20.42579,-11.117425 0.14657,-2.956549 0.99288,-5.213365 1.29305,-8.01531 z M 104.71404,67.997616 C 103.12583,78.302871 101.33685,88.407341 99.542839,98.506792 88.024847,98.628267 76.26491,99.076016 65.155514,98.24778 67.25371,88.368188 68.758588,77.893271 70.842729,67.997616 H 58.433255 C 53.989898,93.203074 49.949114,118.8091 44.988737,143.49553 h 12.668486 c 1.987765,-12.66447 3.846024,-25.45744 6.463248,-37.49045 10.802196,-0.26604 23.748768,-0.72985 34.129317,0.25901 -2.140361,12.51087 -4.726463,24.575 -6.722259,37.23144 h 12.669491 c 4.0699,-25.57691 8.35966,-50.934965 13.44452,-75.497914 z m 31.54321,11.376439 c 2.21666,-1.525961 5.07081,-8.481129 1.81007,-11.376439 -1.03303,-0.916581 -2.76178,-1.18262 -5.1712,-0.775028 -2.23573,0.377475 -3.52175,1.136439 -4.39516,2.326087 -1.40549,1.913474 -2.69252,7.682007 -0.51803,9.82538 2.11828,2.087153 6.86381,0.970792 8.27432,0 z"
           id="path5651" />
      </g>
    </g>
    <g
       transform="matrix(0.3722595,0,0,0.3722595,-13.379229,-3.2602829)"
       id="text2470"
       style="font-style:normal;font-weight:normal;font-size:48px;line-height:1.25;font-family:sans-serif;letter-spacing:0px;word-spacing:0px;fill:#000000;fill-opacity:1;stroke:none"
       aria-label="Débito">
      <path
         inkscape:connector-curvature="0"
         id="path2472"
         style="font-style:normal;font-variant:normal;font-weight:normal;font-stretch:normal;font-family:'Phetsarath OT';-inkscape-font-specification:'Phetsarath OT'"
         d="M 35.940598,44.151978 V 9.7926025 h 11.835937 q 4.007813,0 6.117188,0.4921875 2.953125,0.679688 5.039062,2.460938 2.71875,2.296875 4.054688,5.882812 1.359375,3.5625 1.359375,8.15625 0,3.914063 -0.914063,6.9375 -0.914062,3.023438 -2.34375,5.015625 -1.429687,1.96875 -3.140625,3.117188 -1.6875,1.125 -4.101562,1.710937 -2.390625,0.585938 -5.507813,0.585938 z m 4.546875,-4.054688 h 7.335937 q 3.398438,0 5.320313,-0.632812 1.945312,-0.632813 3.09375,-1.78125 1.617187,-1.617188 2.507812,-4.335938 0.914063,-2.742187 0.914063,-6.632812 0,-5.390625 -1.78125,-8.273438 Q 56.120285,15.53479 53.589035,14.550415 51.76091,13.84729 47.706223,13.84729 h -7.21875 z" />
      <path
         inkscape:connector-curvature="0"
         id="path2474"
         style="font-style:normal;font-variant:normal;font-weight:normal;font-stretch:normal;font-family:'Phetsarath OT';-inkscape-font-specification:'Phetsarath OT'"
         d="M 91.88591,31.94104 H 73.721848 q 0.02344,3.421875 1.3125,5.320313 2.039062,3.234375 5.929687,3.234375 4.78125,0 6.445313,-4.992188 h 3.9375 q -1.03125,5.742188 -5.90625,7.78125 -2.085938,0.867188 -4.640625,0.867188 -6.375,0 -9.351563,-5.226563 -1.828125,-3.234375 -1.828125,-7.992187 0,-7.5 4.429688,-11.179688 2.8125,-2.320312 6.867187,-2.320312 5.414063,0 8.460938,3.890625 0.9375,1.195312 1.523437,2.671875 0.984375,2.601562 0.984375,7.945312 z M 73.79216,28.706665 h 13.851563 q 0.04687,-0.117187 0.04687,-0.304687 0,-3.796875 -2.765625,-5.929688 -1.804688,-1.382812 -4.078125,-1.382812 -3.984375,0 -5.929688,3.5625 -0.9375,1.710937 -1.125,4.054687 z m 7.476563,-18.539062 h 5.4375 l -5.25,6.375 h -3.1875 z" />
      <path
         inkscape:connector-curvature="0"
         id="path2476"
         style="font-style:normal;font-variant:normal;font-weight:normal;font-stretch:normal;font-family:'Phetsarath OT';-inkscape-font-specification:'Phetsarath OT'"
         d="M 100.69841,44.151978 H 96.784348 V 9.7926025 H 101.0031 V 22.050415 q 2.67187,-3.351562 6.82031,-3.351562 2.29688,0 4.33594,0.9375 2.0625,0.914062 3.375,2.601562 1.33594,1.664063 2.08594,4.03125 0.75,2.367188 0.75,5.0625 0,6.398438 -3.16407,9.890625 -3.16406,3.492188 -7.59375,3.492188 -4.40625,0 -6.91406,-3.679688 z m -0.0469,-12.632813 q 0,4.476563 1.21875,6.46875 1.99218,3.257813 5.39062,3.257813 2.76563,0 4.78125,-2.390625 2.01563,-2.414063 2.01563,-7.171875 0,-4.875 -1.94532,-7.195313 -1.92187,-2.320312 -4.66406,-2.320312 -2.76562,0 -4.78125,2.414062 -2.01562,2.390625 -2.01562,6.9375 z" />
      <path
         inkscape:connector-curvature="0"
         id="path2478"
         style="font-style:normal;font-variant:normal;font-weight:normal;font-stretch:normal;font-family:'Phetsarath OT';-inkscape-font-specification:'Phetsarath OT'"
         d="M 123.54997,14.644165 V 9.7926025 h 4.21875 v 4.8515625 z m 0,29.507813 V 19.261353 h 4.21875 v 24.890625 z" />
      <path
         inkscape:connector-curvature="0"
         id="path2480"
         style="font-style:normal;font-variant:normal;font-weight:normal;font-stretch:normal;font-family:'Phetsarath OT';-inkscape-font-specification:'Phetsarath OT'"
         d="m 143.42497,40.37854 0.60938,3.726563 q -1.78125,0.375 -3.1875,0.375 -2.29688,0 -3.5625,-0.726563 -1.26563,-0.726562 -1.78125,-1.898437 -0.51563,-1.195313 -0.51563,-4.992188 V 22.542603 h -3.09375 v -3.28125 h 3.09375 V 13.09729 l 4.19532,-2.53125 v 8.695313 h 4.24218 v 3.28125 h -4.24218 V 37.09729 q 0,1.804688 0.21093,2.320313 0.23438,0.515625 0.72657,0.820312 0.51562,0.304688 1.45312,0.304688 0.70313,0 1.85156,-0.164063 z" />
      <path
         inkscape:connector-curvature="0"
         id="path2482"
         style="font-style:normal;font-variant:normal;font-weight:normal;font-stretch:normal;font-family:'Phetsarath OT';-inkscape-font-specification:'Phetsarath OT'"
         d="m 145.95622,31.706665 q 0,-6.914062 3.84375,-10.242187 3.21094,-2.765625 7.82813,-2.765625 5.13281,0 8.39062,3.375 3.25782,3.351562 3.25782,9.28125 0,4.804687 -1.45313,7.570312 -1.42969,2.742188 -4.19531,4.265625 -2.74219,1.523438 -6,1.523438 -5.22656,0 -8.46094,-3.351563 -3.21094,-3.351562 -3.21094,-9.65625 z m 4.33594,0 q 0,4.78125 2.08594,7.171875 2.08594,2.367188 5.25,2.367188 3.14062,0 5.22656,-2.390625 2.08594,-2.390625 2.08594,-7.289063 0,-4.617187 -2.10938,-6.984375 -2.08593,-2.390625 -5.20312,-2.390625 -3.16406,0 -5.25,2.367188 -2.08594,2.367187 -2.08594,7.148437 z" />
    </g>
    <g
       transform="matrix(0.36587511,0,0,0.36587511,-54.034727,47.904716)"
       id="text2487"
       style="font-style:normal;font-weight:normal;font-size:48px;line-height:1.25;font-family:sans-serif;letter-spacing:0px;word-spacing:0px;fill:#000000;fill-opacity:1;stroke:none"
       aria-label="Crédito">
      <path
         inkscape:connector-curvature="0"
         id="path2489"
         style="font-style:normal;font-variant:normal;font-weight:normal;font-stretch:normal;font-family:'Phetsarath OT';-inkscape-font-specification:'Phetsarath OT'"
         d="m 173.51439,27.110577 4.54687,1.148437 q -1.42968,5.601563 -5.15625,8.554688 -3.70312,2.929687 -9.07031,2.929687 -5.55469,0 -9.04687,-2.25 -3.46875,-2.273437 -5.29688,-6.5625 -1.80469,-4.289062 -1.80469,-9.210937 0,-5.367188 2.03907,-9.351563 2.0625,-4.0078124 5.83593,-6.0703124 3.79688,-2.0859375 8.34375,-2.0859375 5.15625,0 8.67188,2.625 3.51562,2.625 4.89844,7.3828129 l -4.47657,1.054687 q -1.19531,-3.75 -3.46875,-5.4609374 -2.27343,-1.7109375 -5.71875,-1.7109375 -3.96093,0 -6.63281,1.8984379 -2.64844,1.898437 -3.72656,5.109375 -1.07813,3.1875 -1.07813,6.585937 0,4.382813 1.26563,7.664063 1.28906,3.257812 3.98437,4.875 2.69532,1.617187 5.83594,1.617187 3.82031,0 6.46875,-2.203125 2.64844,-2.203125 3.58594,-6.539062 z" />
      <path
         inkscape:connector-curvature="0"
         id="path2491"
         style="font-style:normal;font-variant:normal;font-weight:normal;font-stretch:normal;font-family:'Phetsarath OT';-inkscape-font-specification:'Phetsarath OT'"
         d="M 183.10033,39.157452 V 14.266827 h 3.79687 v 3.773437 q 1.45313,-2.648437 2.67188,-3.492187 1.24218,-0.84375 2.71875,-0.84375 2.13281,0 4.33593,1.359375 l -1.45312,3.914062 q -1.54688,-0.914062 -3.09375,-0.914062 -1.38281,0 -2.48438,0.84375 -1.10156,0.820312 -1.57031,2.296875 -0.70312,2.25 -0.70312,4.921875 v 13.03125 z" />
      <path
         inkscape:connector-curvature="0"
         id="path2493"
         style="font-style:normal;font-variant:normal;font-weight:normal;font-stretch:normal;font-family:'Phetsarath OT';-inkscape-font-specification:'Phetsarath OT'"
         d="m 220.97533,26.946514 h -18.16407 q 0.0234,3.421875 1.3125,5.320313 2.03907,3.234375 5.92969,3.234375 4.78125,0 6.44531,-4.992188 h 3.9375 q -1.03125,5.742188 -5.90625,7.78125 -2.08593,0.867188 -4.64062,0.867188 -6.375,0 -9.35156,-5.226563 -1.82813,-3.234375 -1.82813,-7.992187 0,-7.5 4.42969,-11.179688 2.8125,-2.320312 6.86719,-2.320312 5.41406,0 8.46093,3.890625 0.9375,1.195312 1.52344,2.671875 0.98438,2.601562 0.98438,7.945312 z m -18.09375,-3.234375 h 13.85156 q 0.0469,-0.117187 0.0469,-0.304687 0,-3.796875 -2.76562,-5.929688 -1.80469,-1.382812 -4.07813,-1.382812 -3.98437,0 -5.92968,3.5625 -0.9375,1.710937 -1.125,4.054687 z m 7.47656,-18.5390624 h 5.4375 l -5.25,6.3750004 h -3.1875 z" />
      <path
         inkscape:connector-curvature="0"
         id="path2495"
         style="font-style:normal;font-variant:normal;font-weight:normal;font-stretch:normal;font-family:'Phetsarath OT';-inkscape-font-specification:'Phetsarath OT'"
         d="m 242.04564,39.157452 v -3.140625 q -2.36719,3.703125 -6.96094,3.703125 -2.97656,0 -5.48437,-1.640625 -2.48438,-1.640625 -3.86719,-4.570313 -1.35938,-2.953125 -1.35938,-6.773437 0,-3.726563 1.24219,-6.75 1.24219,-3.046875 3.72656,-4.664063 2.48438,-1.617187 5.55469,-1.617187 2.25,0 4.00781,0.960937 1.75782,0.9375 2.85938,2.460938 V 4.7980766 h 4.19531 V 39.157452 Z M 228.7097,26.735577 q 0,4.78125 2.01563,7.148437 2.01562,2.367188 4.75781,2.367188 2.76562,0 4.6875,-2.25 1.94531,-2.273438 1.94531,-6.914063 0,-5.109375 -1.96875,-7.5 -1.96875,-2.390625 -4.85156,-2.390625 -2.8125,0 -4.71094,2.296875 -1.875,2.296875 -1.875,7.242188 z" />
      <path
         inkscape:connector-curvature="0"
         id="path2497"
         style="font-style:normal;font-variant:normal;font-weight:normal;font-stretch:normal;font-family:'Phetsarath OT';-inkscape-font-specification:'Phetsarath OT'"
         d="M 252.63939,9.6496391 V 4.7980766 h 4.21875 v 4.8515625 z m 0,29.5078129 V 14.266827 h 4.21875 v 24.890625 z" />
      <path
         inkscape:connector-curvature="0"
         id="path2499"
         style="font-style:normal;font-variant:normal;font-weight:normal;font-stretch:normal;font-family:'Phetsarath OT';-inkscape-font-specification:'Phetsarath OT'"
         d="m 272.51439,35.384014 0.60937,3.726563 q -1.78125,0.375 -3.1875,0.375 -2.29687,0 -3.5625,-0.726563 -1.26562,-0.726562 -1.78125,-1.898437 -0.51562,-1.195313 -0.51562,-4.992188 V 17.548077 h -3.09375 v -3.28125 h 3.09375 V 8.1027641 l 4.19531,-2.53125 v 8.6953129 h 4.24219 v 3.28125 h -4.24219 v 14.554687 q 0,1.804688 0.21094,2.320313 0.23437,0.515625 0.72656,0.820312 0.51563,0.304688 1.45313,0.304688 0.70312,0 1.85156,-0.164063 z" />
      <path
         inkscape:connector-curvature="0"
         id="path2501"
         style="font-style:normal;font-variant:normal;font-weight:normal;font-stretch:normal;font-family:'Phetsarath OT';-inkscape-font-specification:'Phetsarath OT'"
         d="m 275.04564,26.712139 q 0,-6.914062 3.84375,-10.242187 3.21094,-2.765625 7.82812,-2.765625 5.13282,0 8.39063,3.375 3.25781,3.351562 3.25781,9.28125 0,4.804687 -1.45312,7.570312 -1.42969,2.742188 -4.19532,4.265625 -2.74218,1.523438 -6,1.523438 -5.22656,0 -8.46093,-3.351563 -3.21094,-3.351562 -3.21094,-9.65625 z m 4.33594,0 q 0,4.78125 2.08593,7.171875 2.08594,2.367188 5.25,2.367188 3.14063,0 5.22657,-2.390625 2.08593,-2.390625 2.08593,-7.289063 0,-4.617187 -2.10937,-6.984375 -2.08594,-2.390625 -5.20313,-2.390625 -3.16406,0 -5.25,2.367188 -2.08593,2.367187 -2.08593,7.148437 z" />
    </g>
  </g>
</svg>
