<?xml version="1.0" encoding="UTF-8" standalone="no"?>
<svg
   xmlns:dc="http://purl.org/dc/elements/1.1/"
   xmlns:cc="http://creativecommons.org/ns#"
   xmlns:rdf="http://www.w3.org/1999/02/22-rdf-syntax-ns#"
   xmlns:svg="http://www.w3.org/2000/svg"
   xmlns="http://www.w3.org/2000/svg"
   xmlns:sodipodi="http://sodipodi.sourceforge.net/DTD/sodipodi-0.dtd"
   xmlns:inkscape="http://www.inkscape.org/namespaces/inkscape"
   viewBox="0 0 213.75999 112.96"
   height="112.96"
   width="213.75999"
   xml:space="preserve"
   id="svg844"
   version="1.1"
   sodipodi:docname="logo-refeita-aquarela-user.svg"
   inkscape:version="0.92.3 (2405546, 2018-03-11)"><sodipodi:namedview
     pagecolor="#ffffff"
     bordercolor="#666666"
     borderopacity="1"
     objecttolerance="10"
     gridtolerance="10"
     guidetolerance="10"
     inkscape:pageopacity="0"
     inkscape:pageshadow="2"
     inkscape:window-width="1366"
     inkscape:window-height="664"
     id="namedview931"
     showgrid="false"
     inkscape:zoom="3.4103669"
     inkscape:cx="106.88"
     inkscape:cy="56.48"
     inkscape:window-x="0"
     inkscape:window-y="27"
     inkscape:window-maximized="1"
     inkscape:current-layer="svg844" /><metadata
     id="metadata850"><rdf:RDF><cc:Work
         rdf:about=""><dc:format>image/svg+xml</dc:format><dc:type
           rdf:resource="http://purl.org/dc/dcmitype/StillImage" /><dc:title /></cc:Work></rdf:RDF></metadata><defs
     id="defs848"><clipPath
       id="clipPath866"
       clipPathUnits="userSpaceOnUse"><path
         style="clip-rule:evenodd"
         id="path864"
         d="m 420,328.801 h 756 V 247.203 H 420 Z" /></clipPath><clipPath
       id="clipPath878"
       clipPathUnits="userSpaceOnUse"><path
         id="path876"
         d="m 369.801,371.285 c -0.684,-1.121 -2.145,-1.683 -4.383,-1.683 h -65.059 c -1.949,0 -2.921,1.851 -2.921,5.566 0,4.687 0.242,7.617 0.726,8.785 0.484,1.176 1.891,2.543 4.223,4.106 3.398,2.152 5.093,4.894 5.093,8.222 0,3.414 -1.054,11.364 -3.179,23.856 h -36.516 l -1.695,-13.469 c 0,-0.293 -0.102,-0.734 -0.305,-1.32 -0.828,-2.832 -1.238,-5.371 -1.238,-7.618 0,-3.515 2.285,-6.5 6.848,-8.941 2.425,-1.269 3.929,-2.59 4.511,-3.953 0.582,-1.371 0.875,-3.613 0.875,-6.738 0,-4.004 -0.218,-6.422 -0.656,-7.25 -0.441,-0.836 -1.484,-1.246 -3.137,-1.246 h -38.55 c -2.145,0 -3.211,2.246 -3.211,6.738 0,5.367 1.707,9.715 5.125,13.039 3.222,3.019 5.074,6.246 5.566,9.668 l 27.129,172.402 c 0.488,2.633 0.734,4.926 0.734,6.883 0,3.027 -2.109,5.715 -6.32,8.063 -1.961,1.168 -2.941,3.757 -2.941,7.765 0,5.371 0.296,8.692 0.882,9.957 0.582,1.274 2.145,1.906 4.684,1.906 h 55.937 c 3.418,0 5.809,-1.609 7.176,-4.832 1.364,-3.218 2.731,-10.253 4.098,-21.089 0.59,-4.2 1.176,-8.352 1.762,-12.454 L 359.105,406.66 c 1.176,-7.812 4.051,-13.769 8.645,-17.871 1.266,-1.074 2.094,-1.93 2.488,-2.562 0.387,-0.637 0.586,-2.563 0.586,-5.786 0,-4.98 -0.34,-8.031 -1.023,-9.156 z m -83.035,180.18 -16.547,-114.481 h 32.574 z M 518.918,336.789 c -4.492,0 -9.547,1.883 -15.156,5.637 -5.617,3.765 -13.258,13.941 -22.926,30.547 -8.695,-4.008 -17.531,-6.008 -26.516,-6.008 -22.168,0 -39.867,11.328 -53.097,33.98 -13.235,22.657 -19.852,51.422 -19.852,86.282 0,36.132 6.594,65.628 19.777,88.48 13.184,22.848 31.25,34.277 54.2,34.277 21.386,0 38.867,-10.988 52.437,-32.964 13.574,-21.969 20.367,-52.582 20.367,-91.84 0,-34.082 -6.937,-62.746 -20.8,-85.989 5.562,-6.543 11.664,-10.89 18.304,-13.039 2.641,-0.879 4.176,-1.925 4.617,-3.148 0.438,-1.223 0.661,-7.887 0.661,-19.996 0,-4.59 0.043,-7.469 0.148,-8.641 0.094,-1.465 0.145,-2.879 0.145,-4.246 0,-8.891 -4.106,-13.332 -12.309,-13.332 z m -52.734,240.82 c 0,4.395 -1.121,8.106 -3.368,11.133 -2.25,3.028 -5.027,4.539 -8.347,4.539 -3.715,0 -6.571,-1.562 -8.571,-4.687 -2.003,-3.129 -3.003,-6.789 -3.003,-10.985 V 399.047 c 0,-4.301 1.121,-8.012 3.367,-11.133 2.246,-3.129 4.886,-4.691 7.914,-4.691 3.121,0 5.832,1.441 8.129,4.32 2.293,2.883 3.445,5.59 3.445,8.133 0,4.492 -4.008,9.762 -12.012,15.816 -2.25,1.664 -3.371,4.106 -3.371,7.324 l -0.148,3.961 c 0,4 1.465,6.004 4.398,6.004 1.363,0 5.219,-1.269 11.567,-3.808 z m 197.316,10.18 c -0.391,-0.828 -1.512,-1.59 -3.371,-2.269 -4.59,-1.563 -6.883,-4.739 -6.883,-9.524 V 416.184 c 0,-15.141 -4.348,-27.125 -13.035,-35.965 -8.691,-8.84 -20.801,-13.254 -36.328,-13.254 -17.387,0 -30.645,4.687 -39.774,14.058 -9.129,9.379 -13.691,22.903 -13.691,40.579 v 154.394 c 0,4.106 -2.152,7.129 -6.449,9.082 -2.149,0.977 -3.446,1.883 -3.879,2.711 -0.442,0.832 -0.66,2.609 -0.66,5.348 0,5.66 0.34,9.226 1.023,10.691 0.684,1.465 2.637,2.195 5.86,2.195 h 63.429 c 2.145,0 3.512,-0.46 4.102,-1.386 0.586,-0.93 0.875,-3.789 0.875,-8.571 0,-4.789 -1.414,-7.961 -4.242,-9.523 -2.149,-1.172 -3.59,-2.395 -4.325,-3.668 -0.73,-1.27 -1.101,-3.711 -1.101,-7.324 V 411.363 c 0,-4.496 1.273,-8.14 3.808,-10.925 2.543,-2.786 5.762,-4.176 9.668,-4.176 3.614,0 6.692,1.562 9.231,4.683 2.539,3.125 3.808,6.594 3.808,10.403 V 575.41 c 0,2.832 -0.269,4.813 -0.804,5.934 -0.539,1.121 -1.883,2.511 -4.028,4.176 -3.32,2.558 -4.98,6.492 -4.98,11.8 0,4.129 0.461,6.614 1.391,7.453 0.929,0.836 2.273,1.25 4.027,1.25 h 31.644 c 3.512,0 5.27,-1.753 5.27,-5.273 v -7.027 c 0,-3.129 -0.195,-5.102 -0.586,-5.934 z M 807.203,371.285 c -0.683,-1.121 -2.144,-1.683 -4.383,-1.683 h -65.058 c -1.949,0 -2.922,1.851 -2.922,5.566 0,4.687 0.242,7.617 0.726,8.785 0.485,1.176 1.891,2.543 4.227,4.106 3.395,2.152 5.09,4.894 5.09,8.222 0,3.414 -1.059,11.364 -3.18,23.856 h -36.519 l -1.692,-13.469 c 0,-0.293 -0.101,-0.734 -0.304,-1.32 -0.825,-2.832 -1.239,-5.371 -1.239,-7.618 0,-3.515 2.285,-6.5 6.848,-8.941 2.426,-1.269 3.93,-2.59 4.512,-3.953 0.582,-1.371 0.875,-3.613 0.875,-6.738 0,-4.004 -0.219,-6.422 -0.657,-7.25 -0.441,-0.836 -1.484,-1.246 -3.14,-1.246 H 671.84 c -2.145,0 -3.211,2.246 -3.211,6.738 0,5.367 1.707,9.715 5.125,13.039 3.223,3.019 5.074,6.246 5.566,9.668 l 27.129,172.402 c 0.489,2.633 0.735,4.926 0.735,6.883 0,3.027 -2.11,5.715 -6.321,8.063 -1.961,1.168 -2.941,3.757 -2.941,7.765 0,5.371 0.297,8.692 0.883,9.957 0.582,1.274 2.144,1.906 4.683,1.906 h 55.938 c 3.418,0 5.808,-1.609 7.176,-4.832 1.363,-3.218 2.73,-10.253 4.101,-21.089 0.586,-4.2 1.172,-8.352 1.758,-12.454 L 796.508,406.66 c 1.176,-7.812 4.051,-13.769 8.644,-17.871 1.266,-1.074 2.094,-1.93 2.489,-2.562 0.386,-0.637 0.586,-2.563 0.586,-5.786 0,-4.98 -0.34,-8.031 -1.024,-9.156 z m -83.035,180.18 -16.547,-114.481 h 32.574 z M 961.449,430.832 v -34.863 c 0,-2.93 1.121,-5.125 3.371,-6.59 2.633,-1.762 3.953,-4.449 3.953,-8.059 0,-5.664 -0.343,-9.031 -1.023,-10.109 -0.684,-1.078 -2.492,-1.609 -5.422,-1.609 h -39.254 c -4.691,0 -8.547,2.656 -11.574,7.984 -3.027,5.32 -4.543,11.891 -4.543,19.699 v 59.035 c 0,11.52 -5.809,17.285 -17.434,17.285 h -6.589 v -72.66 c 0,-3.418 0.214,-5.707 0.648,-6.882 0.434,-1.172 1.652,-2.395 3.668,-3.661 2.59,-1.66 3.891,-4.445 3.891,-8.347 0,-5.668 -0.516,-9.157 -1.539,-10.477 -1.024,-1.316 -2.903,-1.976 -5.625,-1.976 h -61.848 c -3.504,0 -5.258,2.535 -5.258,7.613 0,4.887 0.149,8.035 0.438,9.453 0.296,1.414 1.269,2.414 2.929,3 5.371,2.148 8.059,6.352 8.059,12.609 v 171.661 c 0,6.351 -2.344,10.214 -7.035,11.582 -2.344,0.773 -3.809,1.546 -4.391,2.324 -0.586,0.777 -0.883,3.054 -0.883,6.84 0,7.558 2.055,11.339 6.157,11.339 h 81.007 c 16.11,0 30.485,-6.05 43.137,-18.16 12.649,-12.109 18.969,-28.367 18.969,-48.781 0,-29.004 -14.797,-47.953 -44.383,-56.832 27.051,-5.957 40.574,-23.102 40.574,-51.418 z m -54.492,136.086 c 0,8.203 -1.535,13.988 -4.613,17.355 -3.078,3.372 -7.887,5.055 -14.43,5.055 h -4.98 v -98.73 h 9.519 c 9.668,0 14.504,9.715 14.504,29.148 z M 1052.56,386.301 c 4.79,0 8.08,1.34 9.89,4.027 1.8,2.684 4.71,10.426 8.72,23.219 1.65,5.367 3.37,8.887 5.12,10.543 1.76,1.664 4.84,2.496 9.23,2.496 6.05,0 9.09,-1.957 9.09,-5.863 0,-1.172 -0.2,-2.879 -0.59,-5.125 l -5.43,-33.254 c -0.97,-6.055 -1.77,-9.692 -2.41,-10.91 -0.63,-1.223 -2.61,-1.832 -5.93,-1.832 h -97.703 c -2.445,0 -4.008,0.562 -4.692,1.683 -0.683,1.125 -1.023,4.371 -1.023,9.738 0,3.422 1.754,5.911 5.273,7.477 5.368,2.242 8.055,5.32 8.055,9.227 v 182.664 c -0.094,1.855 -2.293,3.711 -6.59,5.566 -2.929,1.27 -4.668,2.492 -5.203,3.66 -0.535,1.176 -0.804,4.008 -0.804,8.5 0,3.809 0.292,6.078 0.878,6.813 0.586,0.73 2.293,1.093 5.129,1.093 h 93.46 c 2.34,0 4.05,-0.386 5.13,-1.168 1.07,-0.785 1.89,-2.636 2.48,-5.57 l 7.47,-37.793 c 0.39,-1.949 0.59,-3.269 0.59,-3.953 0,-2.633 -2.36,-3.953 -7.08,-3.953 -5.3,0 -8.85,0.605 -10.61,1.828 -1.77,1.223 -3.49,4.274 -5.16,9.16 -3.01,8.785 -5.61,14.887 -7.79,18.309 -2.19,3.418 -4.64,5.125 -7.36,5.125 h -9.9 v -83.641 h 9.96 c 2.73,0 4.74,0.582 6.01,1.758 1.26,1.168 2.24,3.711 2.93,7.617 1.17,6.93 2.12,11.082 2.85,12.449 0.74,1.372 1.88,2.055 3.44,2.055 7.72,0 12.09,-0.32 13.12,-0.957 1.02,-0.637 1.53,-3.098 1.53,-7.398 v -48.774 c 0,-3.027 -0.49,-5.008 -1.46,-5.933 -0.98,-0.934 -4.01,-1.395 -9.08,-1.395 -3.33,0 -5.55,0.609 -6.67,1.832 -1.13,1.223 -2.22,4.66 -3.3,10.328 -1.07,5.176 -2.12,8.352 -3.15,9.52 -1.02,1.176 -2.61,1.758 -4.75,1.758 H 1044.8 V 386.301 Z m 164.94,27.246 -5.12,-35.012 c -0.59,-3.613 -1.34,-6.004 -2.27,-7.18 -0.93,-1.167 -2.81,-1.753 -5.65,-1.753 h -96.38 c -4.1,0 -6.15,2.535 -6.15,7.613 0,3.906 0.27,6.426 0.8,7.543 0.54,1.129 1.69,1.98 3.45,2.566 5.57,1.758 8.34,6.887 8.34,15.383 V 576.73 c 0,3.614 -1.75,6.2 -5.27,7.762 -3.02,1.27 -4.88,2.688 -5.56,4.25 -0.69,1.563 -1.03,4.153 -1.03,7.766 0,4.293 0.3,6.957 0.88,7.98 0.59,1.028 2.15,1.535 4.69,1.535 h 67.53 c 2.53,0 4.27,-0.609 5.2,-1.828 0.92,-1.222 1.39,-4.515 1.39,-9.886 0,-3.227 -0.32,-5.399 -0.96,-6.52 -0.63,-1.125 -2.26,-2.125 -4.9,-3 -4.88,-1.664 -7.33,-4.887 -7.33,-9.668 V 386.152 h 8.35 c 4.3,0 7.47,1.707 9.53,5.129 2.05,3.418 4.73,11.324 8.05,23.731 1.17,4.781 2.59,7.691 4.25,8.715 1.66,1.023 4.49,1.539 8.5,1.539 4.39,0 7.23,-0.364 8.49,-1.098 1.27,-0.73 1.91,-2.074 1.91,-4.031 0,-1.367 -0.25,-3.567 -0.74,-6.59 z m 142.68,-42.262 c -0.68,-1.121 -2.14,-1.683 -4.38,-1.683 h -65.06 c -1.95,0 -2.92,1.851 -2.92,5.566 0,4.687 0.24,7.617 0.73,8.785 0.48,1.176 1.89,2.543 4.22,4.106 3.39,2.152 5.09,4.894 5.09,8.222 0,3.414 -1.06,11.364 -3.18,23.856 h -36.52 l -1.69,-13.469 c 0,-0.293 -0.1,-0.734 -0.31,-1.32 -0.82,-2.832 -1.23,-5.371 -1.23,-7.618 0,-3.515 2.28,-6.5 6.84,-8.941 2.43,-1.269 3.93,-2.59 4.52,-3.953 0.58,-1.371 0.87,-3.613 0.87,-6.738 0,-4.004 -0.21,-6.422 -0.66,-7.25 -0.43,-0.836 -1.48,-1.246 -3.13,-1.246 h -38.55 c -2.14,0 -3.21,2.246 -3.21,6.738 0,5.367 1.7,9.715 5.12,13.039 3.23,3.019 5.08,6.246 5.57,9.668 l 27.13,172.402 c 0.49,2.633 0.73,4.926 0.73,6.883 0,3.027 -2.11,5.715 -6.32,8.063 -1.96,1.168 -2.94,3.757 -2.94,7.765 0,5.371 0.3,8.692 0.88,9.957 0.59,1.274 2.15,1.906 4.69,1.906 h 55.94 c 3.41,0 5.8,-1.609 7.17,-4.832 1.37,-3.218 2.73,-10.253 4.1,-21.089 0.59,-4.2 1.17,-8.352 1.76,-12.454 l 24.05,-160.988 c 1.17,-7.812 4.05,-13.769 8.64,-17.871 1.27,-1.074 2.1,-1.93 2.49,-2.562 0.39,-0.637 0.58,-2.563 0.58,-5.786 0,-4.98 -0.34,-8.031 -1.02,-9.156 z m -83.03,180.18 -16.55,-114.481 h 32.57 z" /></clipPath><clipPath
       id="clipPath890"
       clipPathUnits="userSpaceOnUse"><path
         id="path888"
         d="m 672.262,252 h -8.004 l -15,30.406 -4.102,-6.902 V 252 h -7.801 v 70.008 h 7.801 v -33.801 l 18.602,33.801 h 7.902 l -17.699,-31.903 z m 5.996,0 v 70.008 h 7.801 V 252 Z m 32.199,0 h -16.398 v 70.008 h 16.398 c 10.902,0 15.902,-6.602 15.902,-17.399 v -35.304 c 0,-10.703 -5,-17.305 -15.902,-17.305 z m 8.199,53.004 c 0,6.406 -2.699,9.902 -8.402,9.902 h -8.399 v -55.804 h 8.5 c 5.602,0 8.301,3.503 8.301,9.902 z m 37.899,0.601 c 0,6.305 -2.399,10.004 -7.996,10.004 -5.606,0 -8.008,-3.699 -8.008,-9.898 0,-15.703 23.504,-17.207 23.504,-36.906 0,-10.606 -5.098,-17.504 -15.797,-17.504 -10.703,0 -15.703,6.898 -15.703,17.504 v 4 h 7.3 v -4.403 c 0,-6.297 2.598,-10 8.204,-10 5.597,0 8.195,3.703 8.195,10 0,15.606 -23.399,17.102 -23.399,36.809 0,10.797 5,17.5 15.504,17.5 10.598,0 15.598,-6.902 15.598,-17.5 v -1.902 h -7.402 z m 52.703,0 c 0,6.305 -2.403,10.004 -8,10.004 -5.606,0 -8.004,-3.699 -8.004,-9.898 0,-15.703 23.5,-17.207 23.5,-36.906 0,-10.606 -5.098,-17.504 -15.797,-17.504 -10.703,0 -15.703,6.898 -15.703,17.504 v 4 h 7.301 v -4.403 c 0,-6.297 2.601,-10 8.199,-10 5.601,0 8.203,3.703 8.203,10 0,15.606 -23.402,17.102 -23.402,36.809 0,10.797 5,17.5 15.5,17.5 10.601,0 15.605,-6.902 15.605,-17.5 v -1.902 h -7.402 z m 32.097,9.301 V 252 h -7.703 v 62.906 h -12.898 v 7.102 h 33.504 v -7.102 z m 33.598,-63.605 c -10.703,0 -16.004,7 -16.004,17.597 v 36.211 c 0,10.7 5.301,17.602 16.004,17.602 10.801,0 16.098,-6.902 16.098,-17.602 v -36.211 c 0,-10.597 -5.297,-17.597 -16.098,-17.597 z m 8.301,54.203 c 0,6.305 -2.602,10.105 -8.301,10.105 -5.598,0 -8.301,-3.8 -8.301,-10.105 v -37 c 0,-6.399 2.703,-10.102 8.301,-10.102 5.699,0 8.301,3.703 8.301,10.102 z m 40,-53.504 c -0.899,2.004 -1.301,3.805 -1.301,8.504 v 11 c 0,7.898 -3.703,10.402 -10.203,10.402 h -5.5 V 252 h -7.801 v 70.008 h 15.602 c 11,0 15.605,-5.598 15.605,-16.004 v -5.699 c 0,-7.7 -2.703,-12.5 -8.703,-14.403 6.399,-1.894 8.801,-7.097 8.801,-14.601 v -10.899 c 0,-3.101 0.101,-6 1.402,-8.402 z m -1.301,46.605 v 6.7 c 0,6.304 -2.301,9.601 -8.101,9.601 h -7.602 v -25.898 h 5.801 c 6.199,0 9.902,2 9.902,9.597 z m 44.699,-39.503 V 252 h -28.804 v 70.008 h 28.804 v -7.102 h -21.004 v -23.898 h 17.106 v -7 h -17.106 v -24.906 z" /></clipPath></defs><g
     id="g985"><g
       transform="matrix(1.3333333,0,0,-1.3333333,0.41029859,115.3186)"
       id="g904"><path
         id="path900"
         d="m 82.822563,77.509818 c 1.256735,-7.171189 30.327717,-3.722144 39.168317,-4.917388 17.84003,-2.411966 22.79034,-14.051107 22.18467,-16.223429 0.3205,-2.61918 -2.44029,-6.183762 -2.64976,-7.413109 -2.51345,-5.736953 5.80928,-6.687353 5.80928,-6.687353 -6.49315,-2.253802 -5.02695,-6.146734 -5.02695,-6.146734 4.18912,-10.449449 -2.09457,-13.727708 -2.09457,-13.727708 -12.56737,-10.449448 -39.79667,-8.81032 -39.79667,-8.81032 -15.49976,1.639129 -22.621269,-3.483147 -22.621269,-3.483147 -2.932387,6.351625 -19.06051,5.122276 -19.06051,5.122276 -27.43876,-1.434237 -36.026465,5.32717 -36.026465,5.32717 -6.814915,5.763253 -4.914633,12.04234 -5.162684,12.365585 0.983534,6.833522 -4.792339,9.883984 -4.792339,9.883984 3.770212,1.639129 5.324036,2.545783 5.370404,4.13388 0.02736,3.660425 -4.770864,4.487365 -1.699065,11.521417 1.456951,5.605995 15.709213,11.269012 18.432142,11.473904 0,0 6.912055,2.868476 30.580605,2.048911 0,0 12.776828,-0.20489 17.384864,5.532061 z"
         style="opacity:1;fill:none;stroke:#ff8ba6;stroke-width:1.13039243;stroke-linecap:butt;stroke-linejoin:miter;stroke-miterlimit:4;stroke-dasharray:none;stroke-opacity:1"
         inkscape:connector-curvature="0" /><path
         style="opacity:1;fill:none;stroke:#00c6c0;stroke-width:1.20000005;stroke-linecap:butt;stroke-linejoin:miter;stroke-miterlimit:4;stroke-dasharray:none;stroke-opacity:1"
         d="m 83.348807,80.050042 c 1.319506,-7.697119 31.842473,-3.995123 41.124613,-5.278026 18.73108,-2.588857 23.92863,-15.081603 23.29273,-17.413241 0.33649,-2.811268 -2.56219,-6.637274 -2.78211,-7.95678 -2.63901,-6.157695 6.09941,-7.177797 6.09941,-7.177797 -6.81745,-2.419095 -5.27802,-6.597531 -5.27802,-6.597531 4.39836,-11.215802 -2.19918,-14.734485 -2.19918,-14.734485 C 130.41119,9.6763791 101.82189,11.43572 101.82189,11.43572 85.547981,13.195062 78.07078,7.6971224 78.07078,7.6971224 74.991932,14.514571 58.058272,13.195062 58.058272,13.195062 c -28.809218,-1.539423 -37.825844,5.71786 -37.825844,5.71786 -7.155293,6.185925 -5.160098,12.925514 -5.420539,13.272465 1.032657,7.334688 -5.0316981,10.608867 -5.0316981,10.608867 3.9585181,1.759342 5.5899501,2.732489 5.6386341,4.437056 0.02873,3.928877 -5.009149,4.816464 -1.783927,12.366387 1.52972,6.017134 16.493826,12.095472 19.352756,12.31539 0,0 7.257284,3.078848 32.107984,2.199177 0,0 13.41498,-0.219917 18.253169,5.937778 z"
         id="path898"
         inkscape:connector-curvature="0" /></g><g
       id="text922"
       style="font-style:normal;font-weight:normal;font-size:36px;line-height:1.25;font-family:sans-serif;letter-spacing:0px;word-spacing:0px;fill:#00c6c0;fill-opacity:1;stroke:none;stroke-width:0.75"
       transform="matrix(1.1504564,0,0,1.1504564,-8.4965478,73.079668)"
       aria-label="AQUARELA"><path
         id="path924"
         style="font-style:normal;font-variant:normal;font-weight:normal;font-stretch:normal;font-family:'Bernard MT Condensed';-inkscape-font-specification:'Bernard MT Condensed, ';fill:#00c6c0;fill-opacity:1;stroke-width:0.75"
         d="m 41.304256,-11.460217 h -4.394531 l -0.193359,1.6171875 q 0,0.052734 -0.03516,0.1582031 -0.140625,0.5097657 -0.140625,0.9140625 0,0.6328125 0.826171,1.0722657 0.439454,0.2285156 0.544922,0.4746093 0.105469,0.2460938 0.105469,0.8085938 0,0.7207031 -0.08789,0.8789062 -0.07031,0.140625 -0.36914,0.140625 h -4.640625 q -0.386719,0 -0.386719,-0.8085937 0,-0.9667969 0.615234,-1.5644531 0.580079,-0.5449219 0.667969,-1.1601563 l 3.251953,-20.689453 q 0.08789,-0.474609 0.08789,-0.826172 0,-0.544922 -0.755859,-0.966797 -0.351563,-0.210937 -0.351563,-0.93164 0,-0.966797 0.105469,-1.195313 0.105469,-0.228516 0.5625,-0.228516 h 6.714844 q 0.615234,0 0.861328,0.580079 0.246093,0.580078 0.492187,2.53125 0.105469,0.755859 0.210938,1.49414 l 2.882812,19.3183595 q 0.210938,1.40625 1.03711,2.1445313 0.228515,0.1933593 0.298828,0.3164062 0.07031,0.1054688 0.07031,0.6855469 0,0.8964844 -0.123047,1.1074219 -0.123047,0.1933593 -0.527343,0.1933593 h -7.822266 q -0.351563,0 -0.351563,-0.6679687 0,-0.84375 0.08789,-1.0546875 0.08789,-0.2109375 0.509766,-0.4921875 0.615234,-0.3867188 0.615234,-0.984375 0,-0.6152344 -0.369141,-2.8652344 z m -2.109375,-15.679687 -1.951171,13.658203 h 3.867187 z"
         inkscape:connector-curvature="0" /><path
         id="path926"
         style="font-style:normal;font-variant:normal;font-weight:normal;font-stretch:normal;font-family:'Bernard MT Condensed';-inkscape-font-specification:'Bernard MT Condensed, ';fill:#00c6c0;fill-opacity:1;stroke-width:0.75"
         d="m 62.485897,-5.8000607 q -1.564453,0.7207031 -3.181641,0.7207031 -3.990234,0 -6.380859,-4.078125 -2.373047,-4.0781254 -2.373047,-10.3535154 0,-6.503906 2.373047,-10.617188 2.373047,-4.113281 6.503906,-4.113281 3.84961,0 6.292969,3.955078 2.443359,3.955078 2.443359,11.021485 0,6.134765 -2.496093,10.3183589 1.001953,1.1777344 2.197265,1.5644531 0.47461,0.1582031 0.544922,0.3867188 0.08789,0.2109375 0.08789,2.390625 0,0.8261718 0.01758,1.0371093 0.01758,0.2636719 0.01758,0.5097657 0,1.5996093 -1.476562,1.5996093 -0.808594,0 -1.828125,-0.6855468 -1.001954,-0.6679688 -2.742188,-3.65625 z m -1.757812,-6.2402343 v -18.316406 q 0,-0.791016 -0.404297,-1.335938 -0.404297,-0.544922 -1.001953,-0.544922 -0.667969,0 -1.03711,0.5625 -0.351562,0.5625 -0.351562,1.31836 v 21.427734 q 0,0.7734375 0.404297,1.3359375 0.404296,0.5625 0.949218,0.5625 0.5625,0 0.966797,-0.5097656 0.421875,-0.5273438 0.421875,-0.984375 0,-0.8085938 -1.441406,-1.8984379 -0.404297,-0.298828 -0.404297,-0.878906 l -0.01758,-0.474609 q 0,-0.720703 0.527344,-0.720703 0.246093,0 1.388672,0.457031 z"
         inkscape:connector-curvature="0" /><path
         id="path928"
         style="font-style:normal;font-variant:normal;font-weight:normal;font-stretch:normal;font-family:'Bernard MT Condensed';-inkscape-font-specification:'Bernard MT Condensed, ';fill:#00c6c0;fill-opacity:1;stroke-width:0.75"
         d="m 70.325741,-33.766858 h 7.611328 q 0.386719,0 0.492187,0.175782 0.105469,0.158203 0.105469,1.019531 0,0.861328 -0.509765,1.142578 -0.386719,0.210938 -0.527344,0.439453 -0.123047,0.228516 -0.123047,0.878906 v 19.6875 q 0,0.8085941 0.457031,1.3183598 0.457031,0.4921875 1.160156,0.4921875 0.650391,0 1.107422,-0.5625 0.457032,-0.5625 0.457032,-1.2480473 v -19.6875 q 0,-0.509765 -0.105469,-0.703125 -0.08789,-0.210937 -0.47461,-0.509765 -0.597656,-0.457031 -0.597656,-1.40625 0,-0.738281 0.158203,-0.878906 0.175782,-0.158204 0.492188,-0.158204 h 3.796875 q 0.632812,0 0.632812,0.632813 v 0.84375 q 0,0.5625 -0.07031,0.720703 -0.07031,0.140625 -0.404297,0.263672 -0.826172,0.28125 -0.826172,1.142578 v 19.177734 q 0,2.7246098 -1.564453,4.3242191 -1.564453,1.5820313 -4.359375,1.5820313 -3.128906,0 -4.78125,-1.6875 -1.634766,-1.6875 -1.634766,-4.8691404 v -18.527344 q 0,-0.738281 -0.773437,-1.089844 -0.386719,-0.175781 -0.47461,-0.316406 -0.07031,-0.158203 -0.07031,-0.650391 0,-1.019531 0.123047,-1.283203 0.123047,-0.263672 0.703125,-0.263672 z"
         inkscape:connector-curvature="0" /><path
         id="path930"
         style="font-style:normal;font-variant:normal;font-weight:normal;font-stretch:normal;font-family:'Bernard MT Condensed';-inkscape-font-specification:'Bernard MT Condensed, ';fill:#00c6c0;fill-opacity:1;stroke-width:0.75"
         d="M 93.757381,-11.460217 H 89.36285 l -0.193359,1.6171875 q 0,0.052734 -0.03516,0.1582031 -0.140625,0.5097657 -0.140625,0.9140625 0,0.6328125 0.826171,1.0722657 0.439454,0.2285156 0.544922,0.4746093 0.105469,0.2460938 0.105469,0.8085938 0,0.7207031 -0.08789,0.8789062 -0.07031,0.140625 -0.36914,0.140625 h -4.640625 q -0.386719,0 -0.386719,-0.8085937 0,-0.9667969 0.615234,-1.5644531 0.580079,-0.5449219 0.667969,-1.1601563 L 89.52105,-29.61842 q 0.08789,-0.474609 0.08789,-0.826172 0,-0.544922 -0.755859,-0.966797 -0.351563,-0.210937 -0.351563,-0.93164 0,-0.966797 0.105469,-1.195313 0.105469,-0.228516 0.5625,-0.228516 h 6.714844 q 0.615234,0 0.861328,0.580079 0.246093,0.580078 0.492187,2.53125 0.105469,0.755859 0.210938,1.49414 l 2.882816,19.3183595 q 0.21094,1.40625 1.03711,2.1445313 0.22852,0.1933593 0.29883,0.3164062 0.0703,0.1054688 0.0703,0.6855469 0,0.8964844 -0.12305,1.1074219 -0.12304,0.1933593 -0.52734,0.1933593 h -7.82227 q -0.351563,0 -0.351563,-0.6679687 0,-0.84375 0.08789,-1.0546875 0.08789,-0.2109375 0.509766,-0.4921875 0.615234,-0.3867188 0.615234,-0.984375 0,-0.6152344 -0.369141,-2.8652344 z m -2.109375,-15.679687 -1.951171,13.658203 h 3.867187 z"
         inkscape:connector-curvature="0" /><path
         id="path932"
         style="font-style:normal;font-variant:normal;font-weight:normal;font-stretch:normal;font-family:'Bernard MT Condensed';-inkscape-font-specification:'Bernard MT Condensed, ';fill:#00c6c0;fill-opacity:1;stroke-width:0.75"
         d="m 110.70269,-17.876233 v 8.7187504 q 0,0.6152344 0.0703,0.8261719 0.0879,0.2109375 0.45703,0.4394531 0.47461,0.2988281 0.47461,1.0019531 0,1.0195313 -0.19336,1.265625 -0.17578,0.2285156 -0.66797,0.2285156 h -7.43555 q -0.63281,0 -0.63281,-0.9140625 0,-0.8789062 0.0527,-1.125 0.0527,-0.2636718 0.35157,-0.3691406 0.96679,-0.3867187 0.96679,-1.5117187 V -29.89967 q 0,-1.142578 -0.84375,-1.388672 -0.42187,-0.140625 -0.52734,-0.28125 -0.10547,-0.140625 -0.10547,-0.826172 0,-1.371094 0.73828,-1.371094 h 9.72071 q 2.90039,0 5.16796,2.179688 2.28516,2.179687 2.28516,5.853516 0,5.220703 -5.32617,6.820312 4.86914,1.072266 4.86914,6.169922 v 4.1835936 q 0,0.5273438 0.4043,0.7910157 0.47461,0.3164062 0.47461,0.9667968 0,1.0195313 -0.12305,1.2128907 -0.12305,0.1933593 -0.65039,0.1933593 h -4.71094 q -0.84375,0 -1.38867,-0.9492187 -0.54492,-0.9667969 -0.54492,-2.3730469 v -7.0839845 q 0,-2.074219 -2.0918,-2.074219 z m 0,-13.886718 v 11.847656 h 1.14258 q 1.74024,0 1.74024,-3.498047 v -5.660156 q 0,-1.476563 -0.5625,-2.074219 -0.54493,-0.615234 -1.72266,-0.615234 z"
         inkscape:connector-curvature="0" /><path
         id="path934"
         style="font-style:normal;font-variant:normal;font-weight:normal;font-stretch:normal;font-family:'Bernard MT Condensed';-inkscape-font-specification:'Bernard MT Condensed, ';fill:#00c6c0;fill-opacity:1;stroke-width:0.75"
         d="m 130.10894,-31.604748 v 10.037109 h 1.19532 q 0.49218,0 0.7207,-0.210937 0.22852,-0.210938 0.35156,-0.914063 0.21094,-1.248047 0.33399,-1.49414 0.14062,-0.246094 0.42187,-0.246094 1.38867,0 1.56445,0.123047 0.19336,0.105468 0.19336,0.878906 v 5.853516 q 0,0.544921 -0.17578,0.720703 -0.17578,0.158203 -1.08984,0.158203 -0.59766,0 -0.80859,-0.210938 -0.19336,-0.228515 -0.38672,-1.248047 -0.19336,-0.93164 -0.38672,-1.142578 -0.17578,-0.210937 -0.5625,-0.210937 h -1.3711 v 12.1113279 h 0.93164 q 0.86133,0 1.17774,-0.4746094 0.33398,-0.4921875 1.05469,-2.7949215 0.29882,-0.966797 0.61523,-1.265625 0.31641,-0.298828 1.10742,-0.298828 1.08985,0 1.08985,0.703125 0,0.210937 -0.0703,0.615234 l -0.65039,3.9902343 q -0.17578,1.0898437 -0.29882,1.3183593 -0.10547,0.2109375 -0.70313,0.2109375 h -11.72461 q -0.43945,0 -0.5625,-0.1933593 -0.12305,-0.2109375 -0.12305,-1.1777344 0,-0.6152344 0.63282,-0.8964844 0.96679,-0.4042969 0.96679,-1.1074219 V -30.690686 q -0.0176,-0.333984 -0.79101,-0.667968 -0.52735,-0.228516 -0.63281,-0.439454 -0.0879,-0.210937 -0.0879,-1.019531 0,-0.685547 0.10547,-0.808594 0.10547,-0.140625 0.61524,-0.140625 h 11.21484 q 0.42188,0 0.61524,0.140625 0.19336,0.140625 0.29882,0.667969 l 0.89649,4.535156 q 0.0703,0.351563 0.0703,0.47461 0,0.474609 -0.84375,0.474609 -0.94922,0 -1.26562,-0.210937 -0.31641,-0.228516 -0.61524,-1.107422 -0.54492,-1.582031 -0.94922,-2.197266 -0.38672,-0.615234 -0.8789,-0.615234 z"
         inkscape:connector-curvature="0" /><path
         id="path936"
         style="font-style:normal;font-variant:normal;font-weight:normal;font-stretch:normal;font-family:'Bernard MT Condensed';-inkscape-font-specification:'Bernard MT Condensed, ';fill:#00c6c0;fill-opacity:1;stroke-width:0.75"
         d="m 145.01519,-7.382092 h 1.00196 q 0.77343,0 1.14258,-0.6152344 0.36914,-0.6152343 0.96679,-2.8476566 0.21094,-0.861328 0.50977,-1.037109 0.29883,-0.193359 1.01953,-0.193359 0.79101,0 1.01953,0.140625 0.22852,0.123047 0.22852,0.474609 0,0.246094 -0.0879,0.791016 l -0.61524,4.2011715 q -0.10547,0.6503906 -0.28125,0.8613281 -0.1582,0.2109375 -0.66797,0.2109375 h -11.5664 q -0.73829,0 -0.73829,-0.9140625 0,-0.703125 0.0879,-0.8964843 0.10546,-0.2109375 0.42187,-0.3164063 1.00195,-0.3164062 1.00195,-1.8457031 V -30.251233 q 0,-0.65039 -0.63281,-0.93164 -0.54492,-0.228516 -0.66797,-0.509766 -0.12304,-0.28125 -0.12304,-0.93164 0,-0.773438 0.10546,-0.949219 0.10547,-0.19336 0.5625,-0.19336 h 8.10352 q 0.45703,0 0.61523,0.228516 0.17579,0.210938 0.17579,1.177734 0,0.580079 -0.12305,0.791016 -0.10547,0.193359 -0.58008,0.351563 -0.87891,0.298828 -0.87891,1.160156 z"
         inkscape:connector-curvature="0" /><path
         id="path938"
         style="font-style:normal;font-variant:normal;font-weight:normal;font-stretch:normal;font-family:'Bernard MT Condensed';-inkscape-font-specification:'Bernard MT Condensed, ';fill:#00c6c0;fill-opacity:1;stroke-width:0.75"
         d="m 160.06207,-11.460217 h -4.39453 l -0.19336,1.6171875 q 0,0.052734 -0.0352,0.1582031 -0.14062,0.5097657 -0.14062,0.9140625 0,0.6328125 0.82617,1.0722657 0.43945,0.2285156 0.54492,0.4746093 0.10547,0.2460938 0.10547,0.8085938 0,0.7207031 -0.0879,0.8789062 -0.0703,0.140625 -0.36914,0.140625 h -4.64063 q -0.38672,0 -0.38672,-0.8085937 0,-0.9667969 0.61524,-1.5644531 0.58008,-0.5449219 0.66797,-1.1601563 l 3.25195,-20.689453 q 0.0879,-0.474609 0.0879,-0.826172 0,-0.544922 -0.75586,-0.966797 -0.35156,-0.210937 -0.35156,-0.93164 0,-0.966797 0.10547,-1.195313 0.10547,-0.228516 0.5625,-0.228516 h 6.71484 q 0.61524,0 0.86133,0.580079 0.24609,0.580078 0.49219,2.53125 0.10547,0.755859 0.21094,1.49414 l 2.88281,19.3183595 q 0.21094,1.40625 1.03711,2.1445313 0.22851,0.1933593 0.29883,0.3164062 0.0703,0.1054688 0.0703,0.6855469 0,0.8964844 -0.12305,1.1074219 -0.12305,0.1933593 -0.52734,0.1933593 h -7.82227 q -0.35156,0 -0.35156,-0.6679687 0,-0.84375 0.0879,-1.0546875 0.0879,-0.2109375 0.50977,-0.4921875 0.61523,-0.3867188 0.61523,-0.984375 0,-0.6152344 -0.36914,-2.8652344 z m -2.10938,-15.679687 -1.95117,13.658203 h 3.86719 z"
         inkscape:connector-curvature="0" /></g><g
       transform="matrix(1.3333333,0,0,-1.3333333,1.2886849e-7,137.48154)"
       id="g977"><rect
         style="opacity:1;fill:#ff8ba6;fill-opacity:1;fill-rule:nonzero;stroke:none;stroke-width:0.83415407;stroke-linecap:square;stroke-linejoin:miter;stroke-miterlimit:4;stroke-dasharray:none;stroke-opacity:1;paint-order:fill markers stroke"
         id="rect941"
         width="75.599998"
         height="8.1599998"
         x="42.360001"
         y="-46.440002"
         transform="scale(1,-1)" /><g
         aria-label="KIDS STORE"
         transform="matrix(0.27770111,0,0,-0.27780696,45.127151,38.547348)"
         style="font-style:normal;font-weight:normal;font-size:36px;line-height:1.25;font-family:sans-serif;letter-spacing:0px;word-spacing:0px;fill:#ffffff;fill-opacity:1;stroke:none;stroke-width:0.75"
         id="text945"><path
           d="m 76.547607,-1.1241136 h 2.88 l -6.588,-13.7160004 6.372,-11.484 h -2.844 l -6.696,12.168 v -12.168 h -2.808 v 25.2000004 h 2.808 v -8.46 l 1.476,-2.4840004 z"
           style="font-style:normal;font-variant:normal;font-weight:normal;font-stretch:normal;font-family:'Bebas Neue';-inkscape-font-specification:'Bebas Neue';fill:#ffffff;stroke-width:0.75"
           id="path947"
           inkscape:connector-curvature="0" /><path
           d="m 81.558919,-26.324114 v 25.2000004 h 2.808 V -26.324114 Z"
           style="font-style:normal;font-variant:normal;font-weight:normal;font-stretch:normal;font-family:'Bebas Neue';-inkscape-font-specification:'Bebas Neue';fill:#ffffff;stroke-width:0.75"
           id="path949"
           inkscape:connector-curvature="0" /><path
           d="m 87.254232,-26.324114 v 25.2000004 h 5.904 c 3.924,0 5.724,-2.376 5.724,-6.228 V -20.060114 c 0,-3.888 -1.8,-6.264 -5.724,-6.264 z m 2.808,22.6440004 V -23.768114 h 3.024 c 2.052,0 3.024,1.26 3.024,3.564 v 12.9600004 c 0,2.304 -0.972,3.564 -2.988,3.564 z"
           style="font-style:normal;font-variant:normal;font-weight:normal;font-stretch:normal;font-family:'Bebas Neue';-inkscape-font-specification:'Bebas Neue';fill:#ffffff;stroke-width:0.75"
           id="path951"
           inkscape:connector-curvature="0" /><path
           d="m 106.81967,-26.576114 c -3.78,0 -5.58,2.412 -5.58,6.3 0,7.092 8.424,7.632 8.424,13.2480004 0,2.268 -0.936,3.6 -2.952,3.6 -2.016,0 -2.952,-1.332 -2.952,-3.6 v -1.584 h -2.628 v 1.44 c 0,3.816 1.8,6.30000004 5.652,6.30000004 3.852,0 5.688,-2.48400004 5.688,-6.30000004 0,-7.0920004 -8.46,-7.6320004 -8.46,-13.2840004 0,-2.232 0.864,-3.564 2.88,-3.564 2.016,0 2.88,1.332 2.88,3.6 v 0.828 h 2.664 v -0.684 c 0,-3.816 -1.8,-6.3 -5.616,-6.3 z"
           style="font-style:normal;font-variant:normal;font-weight:normal;font-stretch:normal;font-family:'Bebas Neue';-inkscape-font-specification:'Bebas Neue';fill:#ffffff;stroke-width:0.75"
           id="path953"
           inkscape:connector-curvature="0" /><path
           d="m 125.73373,-26.576114 c -3.78,0 -5.58,2.412 -5.58,6.3 0,7.092 8.424,7.632 8.424,13.2480004 0,2.268 -0.936,3.6 -2.952,3.6 -2.016,0 -2.952,-1.332 -2.952,-3.6 v -1.584 h -2.628 v 1.44 c 0,3.816 1.8,6.30000004 5.652,6.30000004 3.852,0 5.688,-2.48400004 5.688,-6.30000004 0,-7.0920004 -8.46,-7.6320004 -8.46,-13.2840004 0,-2.232 0.864,-3.564 2.88,-3.564 2.016,0 2.88,1.332 2.88,3.6 v 0.828 h 2.664 v -0.684 c 0,-3.816 -1.8,-6.3 -5.616,-6.3 z"
           style="font-style:normal;font-variant:normal;font-weight:normal;font-stretch:normal;font-family:'Bebas Neue';-inkscape-font-specification:'Bebas Neue';fill:#ffffff;stroke-width:0.75"
           id="path955"
           inkscape:connector-curvature="0" /><path
           d="M 140.28111,-1.1241136 V -23.768114 h 4.644 v -2.556 h -12.096 v 2.556 h 4.644 v 22.6440004 z"
           style="font-style:normal;font-variant:normal;font-weight:normal;font-stretch:normal;font-family:'Bebas Neue';-inkscape-font-specification:'Bebas Neue';fill:#ffffff;stroke-width:0.75"
           id="path957"
           inkscape:connector-curvature="0" /><path
           d="m 146.66323,-7.2081136 c 0,3.816 1.908,6.33600004 5.76,6.33600004 3.888,0 5.796,-2.52000004 5.796,-6.33600004 V -20.240114 c 0,-3.852 -1.908,-6.336 -5.796,-6.336 -3.852,0 -5.76,2.484 -5.76,6.336 z m 2.772,-13.1760004 c 0,-2.268 0.972,-3.636 2.988,-3.636 2.052,0 2.988,1.368 2.988,3.636 v 13.3200004 c 0,2.304 -0.936,3.636 -2.988,3.636 -2.016,0 -2.988,-1.332 -2.988,-3.636 z"
           style="font-style:normal;font-variant:normal;font-weight:normal;font-stretch:normal;font-family:'Bebas Neue';-inkscape-font-specification:'Bebas Neue';fill:#ffffff;stroke-width:0.75"
           id="path959"
           inkscape:connector-curvature="0" /><path
           d="m 160.87142,-26.324114 v 25.2000004 h 2.808 V -11.888114 h 1.98 c 2.34,0 3.672,0.9 3.672,3.7440004 v 3.96 c 0,1.692 0.144,2.34 0.468,3.06 h 2.844 c -0.468,-0.864 -0.504,-1.908 -0.504,-3.024 v -3.924 c 0,-2.7000004 -0.864,-4.5720004 -3.168,-5.2560004 2.16,-0.684 3.132,-2.412 3.132,-5.184 v -2.052 c 0,-3.744 -1.656,-5.76 -5.616,-5.76 z m 2.808,11.88 v -9.324 h 2.736 c 2.088,0 2.916,1.188 2.916,3.456 v 2.412 c 0,2.736 -1.332,3.456 -3.564,3.456 z"
           style="font-style:normal;font-variant:normal;font-weight:normal;font-stretch:normal;font-family:'Bebas Neue';-inkscape-font-specification:'Bebas Neue';fill:#ffffff;stroke-width:0.75"
           id="path961"
           inkscape:connector-curvature="0" /><path
           d="m 177.88254,-15.164114 v -8.604 h 7.56 v -2.556 h -10.368 v 25.2000004 h 10.368 v -2.556 h -7.56 v -8.9640004 h 6.156 v -2.52 z"
           style="font-style:normal;font-variant:normal;font-weight:normal;font-stretch:normal;font-family:'Bebas Neue';-inkscape-font-specification:'Bebas Neue';fill:#ffffff;stroke-width:0.75"
           id="path963"
           inkscape:connector-curvature="0" /></g></g></g></svg>