<?xml version="1.0" encoding="UTF-8" standalone="no"?>
<svg
   xmlns:dc="http://purl.org/dc/elements/1.1/"
   xmlns:cc="http://creativecommons.org/ns#"
   xmlns:rdf="http://www.w3.org/1999/02/22-rdf-syntax-ns#"
   xmlns:svg="http://www.w3.org/2000/svg"
   xmlns="http://www.w3.org/2000/svg"
   xmlns:sodipodi="http://sodipodi.sourceforge.net/DTD/sodipodi-0.dtd"
   xmlns:inkscape="http://www.inkscape.org/namespaces/inkscape"
   height="40"
   width="188"
   xml:space="preserve"
   viewBox="0 0 188 40"
   y="0px"
   x="0px"
   id="Capa_1"
   version="1.1"
   sodipodi:docname="lets-encrypt.svg"
   inkscape:version="0.92.3 (2405546, 2018-03-11)"><sodipodi:namedview
   pagecolor="#ffffff"
   bordercolor="#666666"
   borderopacity="1"
   objecttolerance="10"
   gridtolerance="10"
   guidetolerance="10"
   inkscape:pageopacity="0"
   inkscape:pageshadow="2"
   inkscape:window-width="1366"
   inkscape:window-height="664"
   id="namedview927"
   showgrid="false"
   inkscape:zoom="2.5851064"
   inkscape:cx="141"
   inkscape:cy="30"
   inkscape:window-x="0"
   inkscape:window-y="27"
   inkscape:window-maximized="1"
   inkscape:current-layer="Capa_1" /><metadata
   id="metadata947"><rdf:RDF><cc:Work
       rdf:about=""><dc:format>image/svg+xml</dc:format><dc:type
         rdf:resource="http://purl.org/dc/dcmitype/StillImage" /><dc:title></dc:title></cc:Work></rdf:RDF></metadata><defs
   id="defs945" />



<g
   transform="translate(0,-472)"
   id="g912">
</g>
<g
   transform="translate(0,-472)"
   id="g914">
</g>
<g
   transform="translate(0,-472)"
   id="g916">
</g>
<g
   transform="translate(0,-472)"
   id="g918">
</g>
<g
   transform="translate(0,-472)"
   id="g920">
</g>
<g
   transform="translate(0,-472)"
   id="g922">
</g>
<g
   transform="translate(0,-472)"
   id="g924">
</g>
<g
   transform="translate(0,-472)"
   id="g926">
</g>
<g
   transform="translate(0,-472)"
   id="g928">
</g>
<g
   transform="translate(0,-472)"
   id="g930">
</g>
<g
   transform="translate(0,-472)"
   id="g932">
</g>
<g
   transform="translate(0,-472)"
   id="g934">
</g>
<g
   transform="translate(0,-472)"
   id="g936">
</g>
<g
   transform="translate(0,-472)"
   id="g938">
</g>
<g
   transform="translate(0,-472)"
   id="g940">
</g>
<g
   transform="matrix(0.66666666,0,0,0.66666666,-5.9384774,-240.50302)"
   id="g1019"><g
     id="g981"
     transform="matrix(0.49909198,0,0,0.49909198,4.5404883,212.30562)"><g
       transform="matrix(0.17578125,0,0,0.17578125,-4.0605435,327.65631)"
       id="g952"><path
         style="fill:#455a64"
         d="M 256,0 C 179.456,0.094 117.427,62.122 117.333,138.667 V 224 c 0,5.891 4.776,10.667 10.667,10.667 h 42.667 c 5.891,0 10.667,-4.776 10.667,-10.667 V 138.667 C 181.333,97.429 214.763,64 256,64 c 41.237,0 74.667,33.429 74.667,74.667 V 224 c 0,5.891 4.776,10.667 10.667,10.667 H 384 c 5.891,0 10.667,-4.776 10.667,-10.667 V 138.667 C 394.573,62.122 332.544,0.094 256,0 Z"
         id="path906"
         inkscape:connector-curvature="0" /><path
         style="fill:#ffc107"
         d="m 128,213.333 h 256 c 29.455,0 53.333,23.878 53.333,53.333 v 192 C 437.333,488.122 413.455,512 384,512 H 128 C 98.545,512 74.667,488.122 74.667,458.667 v -192 c 0,-29.456 23.878,-53.334 53.333,-53.334 z"
         id="path908"
         inkscape:connector-curvature="0" /><path
         style="fill:#455a64"
         d="m 309.333,330.667 c 0.124,-29.455 -23.653,-53.434 -53.108,-53.558 -29.455,-0.124 -53.434,23.653 -53.558,53.108 -0.086,20.36 11.427,38.992 29.674,48.023 l -8.235,57.6 c -0.825,5.833 3.235,11.23 9.068,12.055 0.494,0.07 0.993,0.105 1.492,0.105 h 42.667 c 5.891,0.06 10.715,-4.667 10.774,-10.558 0.005,-0.543 -0.03,-1.086 -0.108,-1.623 l -8.235,-57.6 c 18.024,-9.02 29.452,-27.399 29.569,-47.552 z"
         id="path910"
         inkscape:connector-curvature="0" /></g><rect
       ry="4.0998845"
       y="297.43799"
       x="38.575287"
       height="28.458023"
       width="6.2092209"
       id="rect954"
       style="opacity:1;fill:#ffc107;fill-opacity:1;fill-rule:nonzero;stroke:none;stroke-width:0.63353062;stroke-linecap:square;stroke-linejoin:miter;stroke-miterlimit:4;stroke-dasharray:none;stroke-opacity:1;paint-order:fill markers stroke" /><rect
       transform="rotate(24.76279)"
       style="opacity:1;fill:#ffc107;fill-opacity:1;fill-rule:nonzero;stroke:none;stroke-width:0.63353062;stroke-linecap:square;stroke-linejoin:miter;stroke-miterlimit:4;stroke-dasharray:none;stroke-opacity:1;paint-order:fill markers stroke"
       id="rect970"
       width="6.2092209"
       height="28.458023"
       x="182.66263"
       y="246.88472"
       ry="4.0998845" /><rect
       ry="4.0998845"
       y="281.8381"
       x="106.98491"
       height="28.458023"
       width="6.2092209"
       id="rect972"
       style="opacity:1;fill:#ffc107;fill-opacity:1;fill-rule:nonzero;stroke:none;stroke-width:0.63353062;stroke-linecap:square;stroke-linejoin:miter;stroke-miterlimit:4;stroke-dasharray:none;stroke-opacity:1;paint-order:fill markers stroke"
       transform="matrix(-0.90804969,0.41886245,0.41886245,0.90804969,0,0)" /></g><g
     id="g1005"><path
       id="rect989"
       d="m 122.79886,366.18571 c -5.45384,0 -8.60151,2.55549 -8.60151,6.98088 0,3.52163 1.77629,5.23582 6.38868,6.10843 l 3.17912,0.62264 c 3.11648,0.59213 4.26969,1.46594 4.26969,3.30467 0,1.90105 -1.74564,3.05358 -4.58164,3.05358 -3.17881,0 -4.95588,-1.34047 -5.11171,-3.77133 h -4.54993 c 0.28048,4.86171 3.61518,7.51095 9.41183,7.51095 5.85898,0 9.31925,-2.74258 9.31925,-7.35497 0,-3.58395 -1.80861,-5.45413 -6.01586,-6.26441 l -3.55194,-0.68477 c -3.33464,-0.65446 -4.30139,-1.30928 -4.30139,-2.96101 0,-1.71407 1.52761,-2.80504 3.9273,-2.80504 2.96065,0 4.61223,1.24702 4.76805,3.55321 h 4.36352 c 0,-2.08804 -0.46825,-3.45932 -1.59019,-4.70591 -1.52707,-1.6829 -4.05096,-2.58692 -7.32327,-2.58692 z m 74.66818,0 c -3.05415,0 -5.5161,0.96558 -7.19899,2.83547 -2.05688,2.24386 -3.17786,5.48583 -3.17786,9.16328 0,3.73977 1.15303,6.94931 3.3034,9.16201 1.74523,1.80756 3.98853,2.64906 6.94918,2.64906 5.54733,0 8.66407,-2.99123 9.34969,-9.00604 h -2.99144 c -0.24932,1.55824 -0.56096,2.61773 -1.02843,3.52151 -0.93495,1.86989 -2.86726,2.92931 -5.29812,2.92931 -4.51889,0 -7.38667,-3.61556 -7.38667,-9.28756 0,-5.82781 2.74262,-9.41182 7.13686,-9.41182 1.83872,0 3.55285,0.5616 4.4878,1.43422 0.84145,0.77912 1.30952,1.74477 1.65233,3.42767 h 2.95975 c -0.90378,-4.98637 -3.77113,-7.41711 -8.7575,-7.41711 z M 48.940999,366.5598 v 22.71925 h 15.55069 v -3.8956 H 53.615209 V 366.5598 Z m 19.02021,0 v 22.71925 h 16.984909 v -3.8956 H 72.636679 v -5.89031 h 10.876489 v -3.8956 H 72.636679 v -5.14214 h 11.748939 v -3.8956 z m 18.791949,0 v 3.8956 h 6.88704 v 18.82365 h 4.67548 V 370.4554 h 6.637232 v -3.8956 z m 20.174182,0 v 4.05158 l 1.24654,4.01986 h 1.74491 l 1.30867,-4.01986 v -4.05158 z m 38.13299,0 v 22.71925 h 16.29887 v -2.55522 h -13.40126 v -7.7912 h 12.37284 v -2.55648 h -12.37284 v -7.26113 h 12.84076 v -2.55522 z m 20.38088,0 v 22.71925 h 2.74163 v -18.41913 l 11.75021,18.41913 h 3.27169 V 366.5598 h -2.7429 v 18.57384 L 168.58863,366.5598 Z m 45.57167,0 v 22.71925 h 2.89887 v -9.78591 h 7.47924 c 2.58668,0 3.73963,1.24674 3.73963,4.05157 l -0.0304,2.02515 c 0,1.40242 0.24919,2.77425 0.65433,3.70919 h 3.52151 v -0.71647 c -1.09076,-0.74795 -1.30848,-1.55866 -1.37081,-4.58164 -0.0312,-3.73977 -0.62326,-4.86242 -3.08528,-5.92202 2.55551,-1.2466 3.58364,-2.83571 3.58364,-5.42239 0,-3.92677 -2.46218,-6.07673 -6.91874,-6.07673 z m 20.02834,0 8.75749,13.80579 v 8.91346 h 2.89888 v -8.91346 l 8.53937,-13.80579 h -3.45937 l -6.48252,11.06289 -6.66893,-11.06289 z m 23.24805,0 v 22.71925 h 2.89888 v -9.62994 h 7.13685 c 1.7764,0 3.17854,-0.52986 4.39397,-1.62062 1.37125,-1.2466 1.96301,-2.71172 1.96301,-4.79976 0,-4.26958 -2.52358,-6.66893 -7.01131,-6.66893 z m 18.63598,0 v 2.55522 h 7.47925 v 20.16403 h 2.89887 v -20.16403 h 7.44755 v -2.55522 z m -59.0135,2.55522 h 7.01258 c 1.62057,0 2.5549,0.24915 3.27169,0.87245 0.77912,0.65446 1.18441,1.6836 1.18441,3.05485 0,2.68017 -1.37078,3.8956 -4.4561,3.8956 h -7.01258 z m 43.2764,0 h 6.04629 c 2.77367,0 4.4244,1.49625 4.4244,3.98943 0,2.49319 -1.65073,3.98944 -4.4244,3.98944 h -6.04629 z"
       style="opacity:1;fill:#ffc107;fill-opacity:1;fill-rule:nonzero;stroke:none;stroke-width:1.06613588;stroke-linecap:square;stroke-linejoin:miter;stroke-miterlimit:4;stroke-dasharray:none;stroke-opacity:1;paint-order:fill markers stroke"
       inkscape:connector-curvature="0" /><rect
       ry="0.18756323"
       y="391.27905"
       x="48.940998"
       height="24.044306"
       width="237.94806"
       id="rect1000"
       style="opacity:1;fill:#ffc107;fill-opacity:1;fill-rule:nonzero;stroke:none;stroke-width:1.09380758;stroke-linecap:square;stroke-linejoin:miter;stroke-miterlimit:4;stroke-dasharray:none;stroke-opacity:1;paint-order:fill markers stroke" /><path
       id="rect997"
       d="m 180.34555,397.82733 c -2.29274,0 -3.71126,1.17545 -3.71126,3.06696 0,1.27533 0.67328,2.07783 2.04892,2.43607 l 2.5935,0.68745 c 1.31832,0.34391 1.92006,0.87412 1.92006,1.6909 0,0.55886 -0.30095,1.13194 -0.74517,1.44719 -0.41555,0.28659 -1.07461,0.4443 -1.92005,0.4443 -1.13204,0 -1.90597,-0.27218 -2.40751,-0.87403 -0.3869,-0.45854 -0.55834,-0.95978 -0.54401,-1.60461 h -1.26118 c 0.0143,0.96008 0.20075,1.5906 0.61631,2.16378 0.71647,0.97441 1.92009,1.48975 3.51067,1.48975 1.24668,0 2.26403,-0.28644 2.93752,-0.8023 0.70215,-0.55886 1.14632,-1.49017 1.14632,-2.39293 0,-1.28967 -0.80229,-2.23518 -2.22092,-2.62208 l -2.62266,-0.7026 c -1.261,-0.34391 -1.71948,-0.74502 -1.71948,-1.54748 0,-1.06038 0.93149,-1.76262 2.33579,-1.76262 1.66223,0 2.59375,0.7599 2.60808,2.12121 h 1.26119 c -0.0143,-2.04913 -1.41875,-3.23896 -3.82612,-3.23896 z m 20.07459,0 c -1.27533,0 -2.30673,0.32997 -3.12352,1.00347 -1.20368,1.00307 -1.89148,2.62239 -1.89148,4.49956 0,3.20983 1.96293,5.44473 4.78585,5.44473 1.41863,0 2.55042,-0.52972 3.56782,-1.66175 l 0.33002,1.38946 h 0.84545 v -5.57417 h -4.35613 v 1.17547 h 3.18066 v 0.28629 c 0,1.86285 -1.3757,3.20981 -3.28153,3.20981 -1.06039,0 -2.02048,-0.38653 -2.63665,-1.06002 -0.68782,-0.74514 -1.10317,-1.99187 -1.10317,-3.28153 0,-2.565 1.46193,-4.25585 3.66869,-4.25585 1.59058,0 2.73663,0.8168 3.02322,2.16378 h 1.36148 c -0.37257,-2.12078 -1.97767,-3.33925 -4.37071,-3.33925 z m 31.77802,0 c -2.99489,0 -5.02958,2.20674 -5.02958,5.47388 0,3.26714 2.03494,5.47388 5.04415,5.47388 1.26101,0 2.39294,-0.38669 3.23839,-1.10317 1.13203,-0.96008 1.80577,-2.5792 1.80577,-4.28442 0,-3.36745 -1.9922,-5.56017 -5.05873,-5.56017 z m -129.89916,0.172 -3.725834,10.44633 h 1.41861 l 1.103184,-3.1381 h 4.02669 l 1.0746,3.1381 h 1.49034 l -3.66811,-10.44633 z m 6.67676,0 v 10.44633 h 1.26118 v -8.75542 l 2.96609,8.75542 h 1.40462 l 2.93752,-8.75542 v 8.75542 h 1.26119 v -10.44633 h -1.84893 l -3.0378,9.09943 -3.09495,-9.09943 z m 12.00837,0 v 10.44633 h 4.71414 c 0.98874,0 1.71979,-0.27219 2.27865,-0.87403 0.51586,-0.54452 0.8023,-1.28985 0.8023,-2.10664 0,-1.261 -0.57341,-2.0205 -1.90606,-2.53636 0.94575,-0.44422 1.44777,-1.21768 1.44777,-2.27807 0,-0.75947 -0.28694,-1.43285 -0.83146,-1.92005 -0.54453,-0.50154 -1.261,-0.73118 -2.26407,-0.73118 z m 9.87258,0 v 10.44633 h 1.3469 v -10.44633 z m 3.83079,0 v 10.44633 h 7.49422 v -1.1749 h -6.16132 v -3.58239 h 5.68845 v -1.17489 h -5.68845 v -3.33926 h 5.9036 v -1.17489 z m 9.37113,0 v 10.44633 h 1.26119 v -8.46855 l 5.40216,8.46855 h 1.50433 v -10.44633 h -1.26061 v 8.54085 l -5.45988,-8.54085 z m 9.56705,0 v 1.17489 h 3.43954 v 9.27144 h 1.33232 v -9.27144 h 3.42497 v -1.17489 z m 9.74897,0 v 10.44633 h 7.49422 v -1.1749 h -6.16132 v -3.58239 h 5.68845 v -1.17489 h -5.68845 v -3.33926 h 5.90361 v -1.17489 z m 23.11764,0 v 10.44633 h 7.49423 v -1.1749 h -6.16132 v -3.58239 h 5.68845 v -1.17489 h -5.68845 v -3.33926 h 5.9036 v -1.17489 z m 20.63901,0 v 7.3368 c 0,2.12078 1.51911,3.43896 3.99813,3.43896 2.45035,0 4.02669,-1.34684 4.02669,-3.43896 v -7.3368 h -1.3329 v 7.3368 c 0,1.4043 -1.01723,2.26407 -2.69379,2.26407 -0.7738,0 -1.40453,-0.18635 -1.90607,-0.54459 -0.51586,-0.40123 -0.75916,-0.93135 -0.75916,-1.71948 v -7.3368 z m 10.47023,0 v 10.44633 h 1.33232 v -4.49957 h 3.43954 c 1.18936,0 1.71948,0.57325 1.71948,1.86291 l -0.0146,0.93175 c 0,0.64483 0.11458,1.27502 0.30087,1.70491 h 1.61919 v -0.32944 c -0.50154,-0.34391 -0.60164,-0.71667 -0.6303,-2.10664 -0.0143,-1.71955 -0.28658,-2.23516 -1.41862,-2.72237 1.17503,-0.57318 1.64777,-1.30386 1.64777,-2.49321 0,-1.80553 -1.13212,-2.79467 -3.18125,-2.79467 z m 14.59663,1.00347 c 2.26407,0 3.72583,1.71949 3.72583,4.35613 0,2.52201 -1.5045,4.24127 -3.71126,4.24127 -2.22108,0 -3.71125,-1.71967 -3.71125,-4.29899 0,-2.57932 1.48992,-4.29841 3.69668,-4.29841 z m -109.88171,0.17142 h 2.57951 c 0.74514,0 1.16067,0.10033 1.51891,0.37259 0.37257,0.28659 0.57316,0.71657 0.57316,1.28975 0,0.55886 -0.20059,1.00317 -0.57316,1.28976 -0.35824,0.27226 -0.77377,0.37258 -1.51891,0.37258 h -2.57951 z m 96.6174,0 h 3.22439 c 0.74514,0 1.17474,0.11515 1.50432,0.40174 0.35824,0.30092 0.54459,0.77354 0.54459,1.40404 0,1.23234 -0.63028,1.7912 -2.04891,1.7912 h -3.22439 z m -115.7894,0.2583 1.60462,4.75729 h -3.3241 z m 19.172,4.24127 h 3.25296 c 0.64483,0 1.0748,0.15812 1.39005,0.50203 0.31525,0.32958 0.48744,0.78788 0.48744,1.30375 0,0.50153 -0.17219,0.96017 -0.48744,1.28975 -0.31525,0.34391 -0.74522,0.50144 -1.39005,0.50144 h -3.25296 z"
       style="opacity:1;fill:#1a1a1a;fill-opacity:1;fill-rule:nonzero;stroke:none;stroke-width:0.47765276;stroke-linecap:square;stroke-linejoin:miter;stroke-miterlimit:4;stroke-dasharray:none;stroke-opacity:1;paint-order:fill markers stroke"
       inkscape:connector-curvature="0" /></g></g></svg>